<svg width="32" height="32" viewBox="0 0 32 32" fill="none" xmlns="http://www.w3.org/2000/svg">
<path d="M16 28C22.6274 28 28 22.6274 28 16C28 9.37258 22.6274 4 16 4C9.37258 4 4 9.37258 4 16C4 22.6274 9.37258 28 16 28Z" stroke="#CEA71C" stroke-width="1.5" stroke-miterlimit="10"/>
<path d="M13.5 12.5H19.5V18.5" stroke="#CEA71C" stroke-width="1.5" stroke-linecap="square" stroke-linejoin="round"/>
<path d="M11.9697 18.9697L11.4393 19.5L12.5 20.5607L13.0303 20.0303L11.9697 18.9697ZM20.0303 13.0303C20.3232 12.7374 20.3232 12.2626 20.0303 11.9697C19.7374 11.6768 19.2626 11.6768 18.9697 11.9697L20.0303 13.0303ZM13.0303 20.0303L20.0303 13.0303L18.9697 11.9697L11.9697 18.9697L13.0303 20.0303Z" fill="#CEA71C"/>
</svg>
