<svg width="94" height="94" viewBox="0 0 94 94" fill="none" xmlns="http://www.w3.org/2000/svg">
<path d="M65.5062 73.6578V48.2044C65.4972 47.6448 65.3332 47.0987 65.0325 46.6268C64.7317 46.1549 64.3059 45.7757 63.8025 45.5313L32.9587 30.3444C32.4939 30.1237 31.9812 30.0229 31.4675 30.051C30.9537 30.0791 30.4551 30.2354 30.0171 30.5054C29.5792 30.7755 29.2157 31.1509 28.9599 31.5973C28.7041 32.0438 28.564 32.5471 28.5525 33.0616V52.3903" stroke="white" stroke-width="1.5"/>
<path d="M53.1688 82.25V66.4169C53.1609 65.8439 52.9913 65.2848 52.6794 64.8041C52.3676 64.3233 51.9262 63.9405 51.4062 63.6997L20.5625 48.4688C20.0988 48.2486 19.5874 48.1476 19.0748 48.175C18.5622 48.2024 18.0645 48.3573 17.6269 48.6257C17.1893 48.8941 16.8256 49.2675 16.5688 49.712C16.312 50.1565 16.1702 50.6581 16.1562 51.1713V62.6128C16.1588 63.1795 16.3197 63.7342 16.6207 64.2143C16.9218 64.6945 17.351 65.0809 17.86 65.33L51.4062 81.9269C51.9189 82.1801 52.4912 82.288 53.0609 82.2388C53.6305 82.1896 54.1758 81.9852 54.6375 81.6478L76.5512 65.4916C76.9477 65.213 77.2719 64.8438 77.4967 64.4145C77.7215 63.9853 77.8405 63.5086 77.8438 63.0241V29.9772C77.8412 29.4105 77.6803 28.8558 77.3793 28.3757C77.0782 27.8956 76.649 27.5091 76.14 27.26L45.2963 12.0731C44.8314 11.8525 44.3188 11.7516 43.805 11.7798C43.2912 11.8079 42.7926 11.9641 42.3546 12.2342C41.9167 12.5043 41.5532 12.8796 41.2974 13.3261C41.0416 13.7725 40.9015 14.2759 40.89 14.7903V34.1778" stroke="white" stroke-width="1.5"/>
</svg>
