<svg width="187" height="34" viewBox="0 0 187 34" fill="none" xmlns="http://www.w3.org/2000/svg">
<path d="M20.8026 16.9147C20.8026 17.4265 20.7778 17.9627 20.7034 18.4989H5.52918C5.75233 19.8394 6.2978 20.8631 7.14082 21.5943C8.00863 22.3254 9.09958 22.6667 10.4385 22.6667C11.3559 22.6667 12.1741 22.4717 12.9179 22.0573C13.6618 21.643 14.232 21.1068 14.6535 20.4H20.3811C19.6372 22.5448 18.3727 24.2509 16.5875 25.5183C14.8023 26.7857 12.7444 27.4194 10.4137 27.4194C7.43835 27.4194 4.9589 26.4201 2.97534 24.4215C0.991779 22.4229 0 19.9613 0 16.9878C0 15.8179 0.173561 14.6968 0.49589 13.6244C0.818218 12.552 1.31411 11.6014 1.93397 10.724C2.55384 9.87097 3.29767 9.13978 4.14068 8.50609C4.9837 7.8724 5.92589 7.40932 6.99205 7.0681C8.05821 6.72688 9.19875 6.55627 10.3889 6.55627C12.3972 6.55627 14.2072 7.01935 15.7941 7.94552C17.4057 8.87168 18.6207 10.1391 19.4637 11.7233C20.3811 13.3075 20.8026 15.038 20.8026 16.9147ZM10.4385 11.114C9.22355 11.114 8.20698 11.4552 7.36397 12.1133C6.52095 12.7713 5.97547 13.6731 5.67794 14.843H15.3974C15.1494 14.0387 14.7775 13.3563 14.3064 12.8201C13.8353 12.2839 13.265 11.8452 12.6204 11.5527C11.9509 11.2602 11.2319 11.114 10.4385 11.114Z" fill="#192E38"/>
<path d="M37.1422 7.11685H42.7953L34.8115 26.8588H29.7782L21.6208 7.11685H27.3731L32.332 20.3513L37.1422 7.11685Z" fill="#192E38"/>
<path d="M64.4409 16.9147C64.4409 17.4265 64.4161 17.9627 64.3417 18.4989H49.1675C49.3906 19.8394 49.9361 20.8631 50.7791 21.5943C51.6469 22.3254 52.7379 22.6667 54.0768 22.6667C54.9942 22.6667 55.8124 22.4717 56.5562 22.0573C57.3001 21.643 57.8703 21.1068 58.2919 20.4H64.0194C63.2755 22.5448 62.011 24.2509 60.2258 25.5183C58.4406 26.7857 56.3827 27.4194 54.052 27.4194C51.0767 27.4194 48.5972 26.4201 46.6136 24.4215C44.6301 22.4229 43.6383 19.9613 43.6383 16.9878C43.6383 15.8179 43.8119 14.6968 44.1342 13.6244C44.4565 12.552 44.9524 11.6014 45.5723 10.724C46.1921 9.87097 46.936 9.13978 47.779 8.50609C48.622 7.8724 49.5642 7.40932 50.6304 7.0681C51.6965 6.72688 52.8371 6.55627 54.0272 6.55627C56.0355 6.55627 57.8455 7.01935 59.4324 7.94552C61.044 8.87168 62.259 10.1391 63.102 11.7233C63.9946 13.3075 64.4409 15.038 64.4409 16.9147ZM54.052 11.114C52.8371 11.114 51.8205 11.4552 50.9775 12.1133C50.1345 12.7713 49.589 13.6731 49.2915 14.843H59.0109C58.763 14.0387 58.391 13.3563 57.9199 12.8201C57.4488 12.2839 56.8786 11.8452 56.2339 11.5527C55.5645 11.2602 54.8454 11.114 54.052 11.114Z" fill="#192E38"/>
<path d="M78.5737 7.01935H80.3589V12.0645H78.0283C76.491 12.0645 75.4 12.4301 74.7306 13.1125C74.0611 13.8194 73.7388 14.9892 73.7388 16.5735V26.8588H68.3088V7.11685H71.8048L72.7718 9.52975C74.1107 7.84803 76.0695 7.01935 78.5737 7.01935Z" fill="#192E38"/>
<path d="M97.3184 7.11685H103.12L94.343 26.6151C93.1033 29.3448 91.8388 31.2459 90.5495 32.3427C89.2602 33.4394 87.4998 34 85.2931 34H83.0616V29.1742H84.9707C86.26 29.1742 87.1774 28.9305 87.7229 28.4674C88.2684 28.0043 88.8635 27.005 89.5081 25.5183L89.5825 25.372L81.0532 7.11685H86.9543L92.3099 19.2545L97.3184 7.11685Z" fill="#192E38"/>
<path d="M115.542 22.1061H117.997V26.8588H114.154C112.691 26.8588 111.426 26.5907 110.335 26.0057C109.269 25.4452 108.426 24.6409 107.856 23.5685C107.286 22.4961 106.988 21.253 106.988 19.7907V11.4065H103.343V10.2853L111.302 1.97419H112.294V7.11685H117.823V11.3821H112.393V19.1082C112.393 20.0588 112.666 20.79 113.187 21.3262C113.782 21.838 114.551 22.1061 115.542 22.1061Z" fill="#192E38"/>
<path d="M141.006 16.9147C141.006 17.4265 140.981 17.9627 140.907 18.4989H125.733C125.956 19.8394 126.502 20.8631 127.345 21.5943C128.212 22.3254 129.303 22.6667 130.642 22.6667C131.56 22.6667 132.378 22.4717 133.122 22.0573C133.865 21.643 134.436 21.1068 134.857 20.4H140.61C139.866 22.5448 138.601 24.2509 136.816 25.5183C135.031 26.7857 132.973 27.4194 130.642 27.4194C127.667 27.4194 125.187 26.4201 123.204 24.4215C121.22 22.4229 120.228 19.9613 120.228 16.9878C120.228 15.8179 120.402 14.6968 120.724 13.6244C121.047 12.552 121.543 11.6014 122.162 10.724C122.782 9.87097 123.526 9.13978 124.369 8.50609C125.212 7.8724 126.154 7.40932 127.221 7.0681C128.287 6.72688 129.427 6.55627 130.617 6.55627C132.626 6.55627 134.436 7.01935 136.023 7.94552C137.634 8.87168 138.849 10.1391 139.692 11.7233C140.585 13.3075 141.006 15.038 141.006 16.9147ZM130.642 11.114C129.427 11.114 128.411 11.4552 127.568 12.1133C126.725 12.7713 126.179 13.6731 125.882 14.843H135.601C135.353 14.0387 134.981 13.3563 134.51 12.8201C134.039 12.2839 133.469 11.8452 132.824 11.5527C132.155 11.2602 131.436 11.114 130.642 11.114Z" fill="#192E38"/>
<path d="M154.222 27.4194C152.238 27.4194 150.428 26.9563 148.817 26.0545C147.18 25.1283 145.916 23.8853 144.973 22.2767C144.031 20.6681 143.585 18.8889 143.585 16.9391C143.585 13.99 144.601 11.5283 146.635 9.55412C148.668 7.57993 151.222 6.58065 154.271 6.58065C156.875 6.58065 159.106 7.31183 160.966 8.79857C162.825 10.2853 163.991 12.2351 164.487 14.6724H159.081C158.635 13.7219 157.99 12.9663 157.123 12.4301C156.255 11.8939 155.288 11.6014 154.197 11.6014C152.734 11.6014 151.519 12.1133 150.527 13.1369C149.536 14.1606 149.064 15.4523 149.064 16.9878C149.064 18.5233 149.56 19.8151 150.552 20.8631C151.544 21.9111 152.759 22.4473 154.197 22.4473C155.288 22.4473 156.255 22.1548 157.098 21.5943C157.941 21.0337 158.586 20.205 159.081 19.1326H164.536C164.04 21.643 162.85 23.666 160.966 25.1771C159.081 26.6394 156.825 27.4194 154.222 27.4194Z" fill="#192E38"/>
<path d="M179.611 6.65376C181.892 6.65376 183.678 7.40932 185.016 8.89606C186.331 10.3828 187 12.3814 187 14.8918V26.8588H181.57V15.7448C181.57 14.2581 181.297 13.1369 180.727 12.4057C180.157 11.6746 179.289 11.309 178.074 11.309C176.71 11.309 175.619 11.772 174.801 12.6982C173.983 13.6244 173.586 14.8918 173.586 16.476V26.8588H168.131V0H173.561V8.96918C175.198 7.40932 177.206 6.65376 179.611 6.65376Z" fill="#192E38"/>
</svg>
