<svg width="217" height="40" viewBox="0 0 217 40" fill="none" xmlns="http://www.w3.org/2000/svg">
<path d="M24.1004 19.8996C24.1004 20.5018 24.0716 21.1326 23.9855 21.7634H6.4057C6.66423 23.3405 7.29618 24.5448 8.27283 25.405C9.27821 26.2652 10.5421 26.6667 12.0933 26.6667C13.1561 26.6667 14.104 26.4373 14.9658 25.9498C15.8275 25.4624 16.4882 24.8315 16.9765 24H23.612C22.7503 26.5233 21.2853 28.5305 19.2171 30.0215C17.1489 31.5125 14.7647 32.2581 12.0645 32.2581C8.61753 32.2581 5.74502 31.0824 3.44701 28.7312C1.149 26.3799 0 23.4839 0 19.9857C0 18.6093 0.201076 17.2903 0.574502 16.0287C0.947928 14.767 1.52244 13.6487 2.24056 12.6165C2.95869 11.6129 3.82044 10.7527 4.79709 10.0072C5.77375 9.26165 6.8653 8.71685 8.10048 8.31541C9.33566 7.91398 10.657 7.71326 12.0358 7.71326C14.3625 7.71326 16.4595 8.25806 18.2979 9.34767C20.165 10.4373 21.5725 11.9283 22.5492 13.7921C23.612 15.6559 24.1004 17.6918 24.1004 19.8996ZM12.0933 13.0753C10.6857 13.0753 9.50801 13.4767 8.53136 14.2509C7.5547 15.0251 6.92275 16.086 6.57804 17.4624H17.8383C17.551 16.5161 17.1202 15.7133 16.5744 15.0824C16.0286 14.4516 15.3679 13.9355 14.6211 13.5914C13.8455 13.2473 13.0125 13.0753 12.0933 13.0753Z" fill="white"/>
<path d="M43.0302 8.37276H49.5795L40.33 31.5986H34.4988L25.0483 8.37276H31.7125L37.4575 23.9427L43.0302 8.37276Z" fill="white"/>
<path d="M74.6565 19.8996C74.6565 20.5018 74.6278 21.1326 74.5416 21.7634H56.9619C57.2204 23.3405 57.8523 24.5448 58.829 25.405C59.8344 26.2652 61.0983 26.6667 62.6494 26.6667C63.7123 26.6667 64.6602 26.4373 65.5219 25.9498C66.3837 25.4624 67.0444 24.8315 67.5327 24H74.1682C73.3064 26.5233 71.8415 28.5305 69.7733 30.0215C67.705 31.5125 65.3209 32.2581 62.6207 32.2581C59.1737 32.2581 56.3012 31.0824 54.0032 28.7312C51.7052 26.3799 50.5562 23.4839 50.5562 19.9857C50.5562 18.6093 50.7572 17.2903 51.1307 16.0287C51.5041 14.767 52.0786 13.6487 52.7967 12.6165C53.5149 11.6129 54.3766 10.7527 55.3533 10.0072C56.3299 9.26165 57.4215 8.71685 58.6567 8.31541C59.8918 7.91398 61.2132 7.71326 62.592 7.71326C64.9187 7.71326 67.0156 8.25806 68.854 9.34767C70.7212 10.4373 72.1287 11.9283 73.1054 13.7921C74.1395 15.6559 74.6565 17.6918 74.6565 19.8996ZM62.6207 13.0753C61.2132 13.0753 60.0354 13.4767 59.0588 14.2509C58.0821 15.0251 57.4502 16.086 57.1055 17.4624H68.3657C68.0785 16.5161 67.6476 15.7133 67.1018 15.0824C66.556 14.4516 65.8954 13.9355 65.1485 13.5914C64.3729 13.2473 63.5399 13.0753 62.6207 13.0753Z" fill="white"/>
<path d="M91.0298 8.25806H93.098V14.1935H90.3979C88.6169 14.1935 87.353 14.6237 86.5774 15.4265C85.8019 16.2581 85.4284 17.6344 85.4284 19.4982V31.5986H79.1376V8.37276H83.1879L84.3082 11.2115C85.8593 9.23297 88.1286 8.25806 91.0298 8.25806Z" fill="white"/>
<path d="M112.746 8.37276H119.468L109.299 31.3118C107.863 34.5233 106.398 36.7599 104.904 38.0502C103.41 39.3405 101.371 40 98.8143 40H96.2291V34.3226H98.4409C99.9346 34.3226 100.997 34.0358 101.629 33.491C102.261 32.9462 102.951 31.7706 103.698 30.0215L103.784 29.8495L93.9023 8.37276H100.739L106.944 22.6523L112.746 8.37276Z" fill="white"/>
<path d="M133.859 26.0072H136.703V31.5986H132.25C130.556 31.5986 129.091 31.2832 127.827 30.595C126.591 29.9355 125.615 28.9892 124.954 27.7276C124.293 26.4659 123.949 25.0036 123.949 23.2832V13.4194H119.726V12.1004L128.947 2.32258H130.096V8.37276H136.502V13.3907H130.211V22.4803C130.211 23.5986 130.527 24.4588 131.13 25.0896C131.819 25.6918 132.71 26.0072 133.859 26.0072Z" fill="white"/>
<path d="M163.36 19.8996C163.36 20.5018 163.331 21.1326 163.245 21.7634H145.665C145.923 23.3405 146.555 24.5448 147.532 25.405C148.537 26.2652 149.801 26.6667 151.353 26.6667C152.415 26.6667 153.363 26.4373 154.225 25.9498C155.087 25.4624 155.747 24.8315 156.236 24H162.9C162.038 26.5233 160.573 28.5305 158.505 30.0215C156.437 31.5125 154.053 32.2581 151.353 32.2581C147.906 32.2581 145.033 31.0824 142.735 28.7312C140.437 26.3799 139.288 23.4839 139.288 19.9857C139.288 18.6093 139.489 17.2903 139.862 16.0287C140.236 14.767 140.81 13.6487 141.529 12.6165C142.247 11.6129 143.108 10.7527 144.085 10.0072C145.062 9.26165 146.153 8.71685 147.388 8.31541C148.624 7.91398 149.945 7.71326 151.324 7.71326C153.651 7.71326 155.747 8.25806 157.586 9.34767C159.453 10.4373 160.861 11.9283 161.837 13.7921C162.871 15.6559 163.36 17.6918 163.36 19.8996ZM151.353 13.0753C149.945 13.0753 148.767 13.4767 147.791 14.2509C146.814 15.0251 146.182 16.086 145.837 17.4624H157.098C156.81 16.5161 156.379 15.7133 155.834 15.0824C155.288 14.4516 154.627 13.9355 153.88 13.5914C153.105 13.2473 152.272 13.0753 151.353 13.0753Z" fill="white"/>
<path d="M178.67 32.2581C176.372 32.2581 174.275 31.7133 172.408 30.6523C170.512 29.5627 169.047 28.1004 167.956 26.2079C166.864 24.3154 166.347 22.2222 166.347 19.9283C166.347 16.4588 167.525 13.5627 169.88 11.2401C172.236 8.91756 175.194 7.74194 178.728 7.74194C181.744 7.74194 184.329 8.60215 186.483 10.3513C188.638 12.1004 189.988 14.3943 190.562 17.2616H184.3C183.783 16.1434 183.036 15.2545 182.031 14.6237C181.026 13.9928 179.905 13.6487 178.641 13.6487C176.947 13.6487 175.539 14.2509 174.39 15.4552C173.241 16.6595 172.695 18.1792 172.695 19.9857C172.695 21.7921 173.27 23.3118 174.419 24.5448C175.568 25.7778 176.975 26.4086 178.641 26.4086C179.905 26.4086 181.026 26.0645 182.002 25.405C182.979 24.7455 183.726 23.7706 184.3 22.509H190.62C190.045 25.4624 188.666 27.8423 186.483 29.6201C184.3 31.3405 181.686 32.2581 178.67 32.2581Z" fill="white"/>
<path d="M208.085 7.82796C210.727 7.82796 212.795 8.71685 214.347 10.466C215.869 12.2151 216.645 14.5663 216.645 17.5197V31.5986H210.354V18.5233C210.354 16.7742 210.038 15.4552 209.377 14.595C208.716 13.7348 207.711 13.3047 206.304 13.3047C204.724 13.3047 203.46 13.8495 202.512 14.9391C201.564 16.0287 201.104 17.5197 201.104 19.3835V31.5986H194.785V0H201.076V10.552C202.971 8.71685 205.298 7.82796 208.085 7.82796Z" fill="white"/>
</svg>
