<svg width="34" height="187" viewBox="0 0 34 187" fill="none" xmlns="http://www.w3.org/2000/svg">
<path d="M17.0853 20.8026C16.5735 20.8026 16.0373 20.7778 15.5011 20.7034V5.52918C14.1606 5.75233 13.1369 6.2978 12.4057 7.14082C11.6746 8.00863 11.3333 9.09958 11.3333 10.4385C11.3333 11.3559 11.5283 12.1741 11.9427 12.9179C12.357 13.6618 12.8932 14.232 13.6 14.6535V20.3811C11.4552 19.6372 9.74911 18.3727 8.48172 16.5875C7.21434 14.8023 6.58064 12.7444 6.58064 10.4137C6.58064 7.43835 7.57993 4.9589 9.5785 2.97534C11.5771 0.991779 14.0387 0 17.0122 0C18.1821 0 19.3032 0.173561 20.3756 0.49589C21.448 0.818218 22.3986 1.31411 23.276 1.93397C24.129 2.55384 24.8602 3.29767 25.4939 4.14068C26.1276 4.9837 26.5907 5.92589 26.9319 6.99205C27.2731 8.05821 27.4437 9.19875 27.4437 10.3889C27.4437 12.3972 26.9806 14.2072 26.0545 15.7941C25.1283 17.4057 23.8609 18.6207 22.2767 19.4637C20.6925 20.3811 18.962 20.8026 17.0853 20.8026ZM22.886 10.4385C22.886 9.22355 22.5448 8.20698 21.8867 7.36397C21.2287 6.52095 20.3269 5.97547 19.157 5.67794V15.3974C19.9613 15.1494 20.6437 14.7775 21.1799 14.3064C21.7161 13.8353 22.1548 13.265 22.4473 12.6204C22.7398 11.9509 22.886 11.2319 22.886 10.4385Z" fill="#192E38"/>
<path d="M26.8832 37.1422V42.7953L7.14122 34.8115V29.7782L26.8832 21.6208V27.3731L13.6487 32.332L26.8832 37.1422Z" fill="#192E38"/>
<path d="M17.0853 64.4409C16.5735 64.4409 16.0373 64.4161 15.5011 64.3417V49.1675C14.1606 49.3906 13.1369 49.9361 12.4057 50.7791C11.6746 51.6469 11.3333 52.7379 11.3333 54.0768C11.3333 54.9942 11.5283 55.8124 11.9427 56.5562C12.357 57.3001 12.8932 57.8703 13.6 58.2919V64.0194C11.4552 63.2755 9.74911 62.011 8.48172 60.2258C7.21434 58.4406 6.58064 56.3827 6.58064 54.052C6.58064 51.0767 7.57993 48.5972 9.5785 46.6136C11.5771 44.6301 14.0387 43.6383 17.0122 43.6383C18.1821 43.6383 19.3032 43.8119 20.3756 44.1342C21.448 44.4565 22.3986 44.9524 23.276 45.5723C24.129 46.1921 24.8602 46.936 25.4939 47.779C26.1276 48.622 26.5907 49.5642 26.9319 50.6304C27.2731 51.6965 27.4437 52.8371 27.4437 54.0272C27.4437 56.0355 26.9806 57.8455 26.0545 59.4324C25.1283 61.044 23.8609 62.259 22.2767 63.102C20.6925 63.9946 18.962 64.4409 17.0853 64.4409ZM22.886 54.052C22.886 52.8371 22.5448 51.8205 21.8867 50.9775C21.2287 50.1345 20.3269 49.589 19.157 49.2915V59.0109C19.9613 58.763 20.6437 58.391 21.1799 57.9199C21.7161 57.4488 22.1548 56.8786 22.4473 56.2339C22.7398 55.5645 22.886 54.8454 22.886 54.052Z" fill="#192E38"/>
<path d="M26.9806 78.5737L26.9806 80.3589H21.9355V78.0283C21.9355 76.491 21.5699 75.4 20.8875 74.7306C20.1806 74.0611 19.0108 73.7388 17.4265 73.7388H7.14122V68.3088H26.8832V71.8048L24.4703 72.7718C26.152 74.1107 26.9806 76.0695 26.9806 78.5737Z" fill="#192E38"/>
<path d="M26.8832 97.3184V103.12L7.38495 94.343C4.6552 93.1033 2.75412 91.8388 1.65735 90.5495C0.560574 89.2602 0 87.4998 0 85.2931V83.0616H4.82581V84.9707C4.82581 86.26 5.06953 87.1774 5.53262 87.7229C5.9957 88.2684 6.99498 88.8635 8.48172 89.5081L8.62796 89.5825L26.8832 81.0532V86.9543L14.7455 92.3099L26.8832 97.3184Z" fill="#192E38"/>
<path d="M11.8939 115.542V117.997H7.14122V114.154C7.14122 112.691 7.40932 111.426 7.99427 110.335C8.55484 109.269 9.35914 108.426 10.4315 107.856C11.5039 107.286 12.747 106.988 14.2093 106.988H22.5935V103.343H23.7147L32.0258 111.302V112.294H26.8832V117.823H22.6179V112.393H14.8918C13.9412 112.393 13.21 112.666 12.6738 113.187C12.162 113.782 11.8939 114.551 11.8939 115.542Z" fill="#192E38"/>
<path d="M17.0853 141.006C16.5735 141.006 16.0373 140.981 15.5011 140.907V125.733C14.1606 125.956 13.1369 126.502 12.4057 127.345C11.6746 128.212 11.3333 129.303 11.3333 130.642C11.3333 131.56 11.5283 132.378 11.9427 133.122C12.357 133.865 12.8932 134.436 13.6 134.857V140.61C11.4552 139.866 9.74911 138.601 8.48172 136.816C7.21434 135.031 6.58064 132.973 6.58064 130.642C6.58064 127.667 7.57993 125.187 9.5785 123.204C11.5771 121.22 14.0387 120.228 17.0122 120.228C18.1821 120.228 19.3032 120.402 20.3756 120.724C21.448 121.047 22.3986 121.543 23.276 122.162C24.129 122.782 24.8602 123.526 25.4939 124.369C26.1276 125.212 26.5907 126.154 26.9319 127.221C27.2731 128.287 27.4437 129.427 27.4437 130.617C27.4437 132.626 26.9806 134.436 26.0545 136.023C25.1283 137.634 23.8609 138.849 22.2767 139.692C20.6925 140.585 18.962 141.006 17.0853 141.006ZM22.886 130.642C22.886 129.427 22.5448 128.411 21.8867 127.568C21.2287 126.725 20.3269 126.179 19.157 125.882V135.601C19.9613 135.353 20.6437 134.981 21.1799 134.51C21.7161 134.039 22.1548 133.469 22.4473 132.824C22.7398 132.155 22.886 131.436 22.886 130.642Z" fill="#192E38"/>
<path d="M6.58064 154.222C6.58064 152.238 7.04373 150.428 7.94552 148.817C8.87169 147.18 10.1147 145.916 11.7233 144.973C13.3319 144.031 15.1111 143.585 17.0609 143.585C20.01 143.585 22.4717 144.601 24.4459 146.635C26.4201 148.668 27.4194 151.222 27.4194 154.271C27.4194 156.875 26.6882 159.106 25.2014 160.966C23.7147 162.825 21.7649 163.991 19.3276 164.487L19.3276 159.081C20.2781 158.635 21.0337 157.99 21.5699 157.123C22.1061 156.255 22.3986 155.288 22.3986 154.197C22.3986 152.734 21.8867 151.519 20.8631 150.527C19.8394 149.536 18.5477 149.064 17.0122 149.064C15.4767 149.064 14.1849 149.56 13.1369 150.552C12.0889 151.544 11.5527 152.759 11.5527 154.197C11.5527 155.288 11.8452 156.255 12.4057 157.098C12.9663 157.941 13.795 158.586 14.8674 159.081V164.536C12.357 164.04 10.334 162.85 8.82294 160.966C7.36057 159.081 6.58064 156.825 6.58064 154.222Z" fill="#192E38"/>
<path d="M27.3462 179.611C27.3462 181.892 26.5907 183.678 25.1039 185.016C23.6172 186.331 21.6186 187 19.1082 187H7.14122V181.57H18.2552C19.7419 181.57 20.8631 181.297 21.5943 180.727C22.3254 180.157 22.691 179.289 22.691 178.074C22.691 176.71 22.228 175.619 21.3018 174.801C20.3756 173.983 19.1082 173.586 17.524 173.586H7.14122V168.131H34V173.561H25.0308C26.5907 175.198 27.3462 177.206 27.3462 179.611Z" fill="#192E38"/>
</svg>
