<svg width="94" height="94" viewBox="0 0 94 94" fill="none" xmlns="http://www.w3.org/2000/svg">
<path d="M50.7453 18.9175L47 15.1722C46.5087 14.6792 45.925 14.2881 45.2823 14.0213C44.6396 13.7544 43.9506 13.617 43.2547 13.617C42.5588 13.617 41.8697 13.7544 41.227 14.0213C40.5843 14.2881 40.0006 14.6792 39.5094 15.1722L13.3069 41.3894C12.8144 41.8793 12.4236 42.4618 12.1569 43.1033C11.8902 43.7448 11.7529 44.4326 11.7529 45.1273C11.7529 45.822 11.8902 46.5099 12.1569 47.1514C12.4236 47.7929 12.8144 48.3753 13.3069 48.8653C13.7968 49.3578 14.3793 49.7486 15.0208 50.0153C15.6623 50.2819 16.3501 50.4192 17.0448 50.4192C17.7395 50.4192 18.4274 50.2819 19.0689 50.0153C19.7104 49.7486 20.2928 49.3578 20.7828 48.8653L50.7453 18.9175C51.2365 18.4246 51.8202 18.0334 52.4629 17.7666C53.1056 17.4997 53.7947 17.3623 54.4906 17.3623C55.1865 17.3623 55.8756 17.4997 56.5183 17.7666C57.161 18.0334 57.7447 18.4246 58.2359 18.9175L65.7265 26.4081" stroke="white" stroke-width="1.5"/>
<path d="M13.3069 48.8653L43.2547 78.8278C43.7459 79.3207 44.3296 79.7119 44.9723 79.9787C45.615 80.2456 46.3041 80.383 47 80.383C47.6959 80.383 48.385 80.2456 49.0277 79.9787C49.6704 79.7119 50.2541 79.3207 50.7453 78.8278L80.6931 48.8653C81.1856 48.3753 81.5764 47.7929 81.8431 47.1514C82.1098 46.5099 82.2471 45.822 82.2471 45.1273C82.2471 44.4326 82.1098 43.7448 81.8431 43.1033C81.5764 42.4618 81.1856 41.8793 80.6931 41.3894L73.2172 33.8987" stroke="white" stroke-width="1.5"/>
<path d="M46.9927 37.7219L62.0107 22.7068L76.9552 37.6514L61.9372 52.6679C59.9513 54.6536 57.2579 55.7692 54.4496 55.7692C51.6412 55.7692 48.9478 54.6536 46.9619 52.6679C44.9892 50.6791 43.8849 47.9897 43.8906 45.1885C43.8964 42.3873 45.0118 39.7025 46.9927 37.7219V37.7219Z" stroke="white" stroke-width="1.5"/>
</svg>
