<svg width="94" height="94" viewBox="0 0 94 94" fill="none" xmlns="http://www.w3.org/2000/svg">
<path d="M61.6875 11.75H32.3125C29.0678 11.75 26.4375 14.3803 26.4375 17.625V76.375C26.4375 79.6197 29.0678 82.25 32.3125 82.25H61.6875C64.9322 82.25 67.5625 79.6197 67.5625 76.375V17.625C67.5625 14.3803 64.9322 11.75 61.6875 11.75Z" stroke="white" stroke-width="1.5" stroke-linejoin="round"/>
<path d="M41.125 17.625H52.875" stroke="white" stroke-width="1.5" stroke-linecap="round" stroke-linejoin="round"/>
<path d="M44.0625 76.375H49.9375" stroke="white" stroke-width="1.5" stroke-linecap="round" stroke-linejoin="round"/>
<path d="M47.4123 49.4737C49.9169 49.4737 51.9474 46.7049 51.9474 43.2895C51.9474 39.8741 49.9169 37.1053 47.4123 37.1053C44.9076 37.1053 42.8772 39.8741 42.8772 43.2895C42.8772 46.7049 44.9076 49.4737 47.4123 49.4737Z" stroke="white" stroke-width="1.5" stroke-linejoin="round"/>
<path d="M43.4535 47C43.4535 47 39.5076 48.0735 38.7278 50.1963V50.1963C37.5741 53.3815 40.5764 56.0702 43.9641 56.0702H50.9284C54.2765 56.0702 57.2328 53.401 56.0828 50.2566V50.2566C55.3267 48.1338 51.3571 47.0603 51.3571 47.0603" stroke="white" stroke-width="1.5" stroke-linejoin="round"/>
</svg>
