<svg width="94" height="94" viewBox="0 0 94 94" fill="none" xmlns="http://www.w3.org/2000/svg">
<path d="M78.7396 52.5959L69.7655 55.5334C68.9954 55.7892 68.1755 55.8584 67.3734 55.7355C66.5713 55.6126 65.8098 55.301 65.1517 54.8264C64.4935 54.3517 63.9574 53.7276 63.5875 53.0054C63.2176 52.2831 63.0244 51.4833 63.0239 50.6718V29.4925C63.0237 28.4142 63.3626 27.3632 63.9925 26.4881C64.6225 25.613 65.5116 24.9582 66.5342 24.6162L75.5083 21.6787C76.2703 21.4222 77.082 21.349 77.8776 21.4651C78.6731 21.5812 79.4301 21.8834 80.0869 22.347C80.7437 22.8107 81.2819 23.4227 81.6578 24.1335C82.0336 24.8442 82.2365 25.6336 82.2499 26.4375V47.7343C82.2492 48.8106 81.9098 49.8594 81.2798 50.732C80.6497 51.6046 79.761 52.2567 78.7396 52.5959Z" stroke="white" stroke-width="1.5"/>
<path d="M69.4276 55.6803V64.4928C69.4288 65.5692 69.0921 66.6189 68.465 67.4938C67.8378 68.3687 66.9518 69.0246 65.932 69.369L56.9579 72.3065C56.1963 72.5623 55.3852 72.6354 54.5901 72.52C53.795 72.4046 53.0382 72.1039 52.3807 71.6422C51.7231 71.1806 51.1834 70.5708 50.8049 69.8621C50.4263 69.1534 50.2197 68.3657 50.2017 67.5625V46.2656C50.2023 45.1893 50.5417 44.1406 51.1718 43.268C51.8018 42.3954 52.6906 41.7433 53.712 41.404L62.686 38.4665L63.0238 38.3784" stroke="white" stroke-width="1.5"/>
<path d="M50.2021 53.5653L44.1361 55.5922C43.3652 55.8474 42.5448 55.9164 41.742 55.7934C40.9393 55.6704 40.1771 55.359 39.518 54.8847C38.8588 54.4104 38.3214 53.7866 37.9497 53.0646C37.5781 52.3425 37.3828 51.5427 37.3799 50.7306V29.4925C37.3819 28.4148 37.7216 27.3648 38.3512 26.4901C38.9809 25.6155 39.8688 24.9601 40.8902 24.6162L49.8643 21.6787C50.6271 21.4227 51.4394 21.3498 52.2356 21.4659C53.0318 21.5821 53.7895 21.8841 54.4473 22.3474C55.1051 22.8108 55.6447 23.4225 56.0222 24.133C56.3997 24.8436 56.6047 25.633 56.6205 26.4375V40.3759" stroke="white" stroke-width="1.5"/>
<path d="M43.7982 55.6803V64.4928C43.7984 65.571 43.4596 66.6221 42.8296 67.4972C42.1997 68.3722 41.3105 69.0271 40.2879 69.369L31.3138 72.3065C30.553 72.5628 29.7426 72.6362 28.9481 72.5208C28.1537 72.4055 27.3976 72.1046 26.7411 71.6426C26.0845 71.1806 25.5461 70.5705 25.1693 69.8616C24.7925 69.1528 24.588 68.3651 24.5723 67.5625V46.2656C24.5741 45.1917 24.9122 44.1453 25.5392 43.2733C26.1661 42.4014 27.0504 41.7477 28.0679 41.404L37.042 38.4665L37.3798 38.3784" stroke="white" stroke-width="1.5"/>
<path d="M24.5722 53.5653L18.4916 55.5922C17.7214 55.8479 16.9016 55.9172 16.0995 55.7943C15.2974 55.6714 14.5359 55.3598 13.8777 54.8851C13.2195 54.4105 12.6834 53.7864 12.3135 53.0641C11.9436 52.3418 11.7505 51.5421 11.75 50.7306V29.4925C11.7498 28.4142 12.0886 27.3632 12.7186 26.4881C13.3486 25.613 14.2377 24.9582 15.2603 24.6162L24.2344 21.6787C24.9963 21.4222 25.8081 21.349 26.6036 21.4651C27.3992 21.5812 28.1561 21.8834 28.813 22.347C29.4698 22.8107 30.008 23.4227 30.3838 24.1335C30.7597 24.8442 30.9625 25.6336 30.9759 26.4375V40.3759" stroke="white" stroke-width="1.5"/>
</svg>
