<svg width="94" height="94" viewBox="0 0 94 94" fill="none" xmlns="http://www.w3.org/2000/svg">
<path d="M78.7397 52.5959L69.7656 55.5334C68.9955 55.7892 68.1757 55.8584 67.3735 55.7355C66.5714 55.6126 65.81 55.301 65.1518 54.8264C64.4936 54.3517 63.9575 53.7276 63.5876 53.0054C63.2177 52.2831 63.0245 51.4833 63.024 50.6718V29.4925C63.0238 28.4142 63.3627 27.3632 63.9926 26.4881C64.6226 25.613 65.5118 24.9582 66.5344 24.6162L75.5084 21.6787C76.2704 21.4222 77.0821 21.349 77.8777 21.4651C78.6732 21.5812 79.4302 21.8834 80.087 22.347C80.7439 22.8107 81.2821 23.4227 81.6579 24.1335C82.0337 24.8442 82.2366 25.6336 82.25 26.4375V47.7343C82.2493 48.8106 81.9099 49.8594 81.2799 50.732C80.6498 51.6046 79.7611 52.2567 78.7397 52.5959Z" stroke="white" stroke-width="1.5"/>
<path d="M69.4278 55.6803V64.4928C69.4291 65.5692 69.0924 66.6189 68.4652 67.4938C67.838 68.3687 66.9521 69.0246 65.9322 69.369L56.9582 72.3065C56.1965 72.5623 55.3854 72.6354 54.5903 72.52C53.7953 72.4046 53.0384 72.1039 52.3809 71.6422C51.7234 71.1806 51.1836 70.5708 50.8051 69.8621C50.4266 69.1534 50.22 68.3657 50.2019 67.5625V46.2656C50.2026 45.1893 50.542 44.1406 51.172 43.268C51.8021 42.3954 52.6908 41.7433 53.7122 41.404L62.6863 38.4665L63.0241 38.3784" stroke="white" stroke-width="1.5"/>
<path d="M50.2018 53.5653L44.1359 55.5922C43.365 55.8474 42.5445 55.9164 41.7418 55.7934C40.9391 55.6704 40.1769 55.359 39.5177 54.8847C38.8586 54.4104 38.3211 53.7866 37.9495 53.0646C37.5779 52.3425 37.3826 51.5427 37.3796 50.7306V29.4925C37.3816 28.4148 37.7213 27.3648 38.351 26.4901C38.9806 25.6155 39.8686 24.9601 40.89 24.6162L49.864 21.6787C50.6268 21.4227 51.4392 21.3498 52.2354 21.4659C53.0316 21.5821 53.7892 21.8841 54.4471 22.3474C55.1049 22.8108 55.6444 23.4225 56.022 24.133C56.3995 24.8436 56.6045 25.633 56.6203 26.4375V40.3759" stroke="white" stroke-width="1.5"/>
<path d="M43.7981 55.6803V64.4928C43.7983 65.571 43.4594 66.6221 42.8295 67.4972C42.1995 68.3722 41.3104 69.0271 40.2878 69.369L31.3137 72.3065C30.5529 72.5628 29.7425 72.6362 28.948 72.5208C28.1536 72.4055 27.3974 72.1046 26.7409 71.6426C26.0844 71.1806 25.5459 70.5705 25.1691 69.8616C24.7924 69.1528 24.5878 68.3651 24.5721 67.5625V46.2656C24.574 45.1917 24.9121 44.1453 25.5391 43.2733C26.166 42.4014 27.0503 41.7477 28.0678 41.404L37.0418 38.4665L37.3796 38.3784" stroke="white" stroke-width="1.5"/>
<path d="M24.5722 53.5653L18.4916 55.5922C17.7214 55.8479 16.9016 55.9172 16.0995 55.7943C15.2974 55.6714 14.5359 55.3598 13.8777 54.8851C13.2195 54.4105 12.6834 53.7864 12.3135 53.0641C11.9436 52.3418 11.7505 51.5421 11.75 50.7306V29.4925C11.7498 28.4142 12.0886 27.3632 12.7186 26.4881C13.3486 25.613 14.2377 24.9582 15.2603 24.6162L24.2344 21.6787C24.9963 21.4222 25.8081 21.349 26.6036 21.4651C27.3992 21.5812 28.1561 21.8834 28.813 22.347C29.4698 22.8107 30.008 23.4227 30.3838 24.1335C30.7597 24.8442 30.9625 25.6336 30.9759 26.4375V40.3759" stroke="white" stroke-width="1.5"/>
</svg>
