<svg width="204" height="180" viewBox="0 0 204 180" fill="none" xmlns="http://www.w3.org/2000/svg">
<path d="M16.1445 180V145.417H23.0335V148.629H23.2796C23.8045 147.937 24.4442 147.278 25.1987 146.652C26.9701 145.335 28.9548 144.676 31.1527 144.676C34.4332 144.676 37.1724 145.911 39.3703 148.381C41.6011 150.819 42.7164 154.03 42.7164 158.015C42.7164 162 41.6011 165.228 39.3703 167.698C37.1724 170.136 34.4332 171.354 31.1527 171.354C28.9548 171.354 26.9701 170.696 25.1987 169.378C24.4442 168.752 23.8045 168.094 23.2796 167.402H23.0335V180H16.1445ZM24.805 152.581C23.624 153.865 23.0335 155.677 23.0335 158.015C23.0335 160.354 23.624 162.182 24.805 163.499C25.986 164.784 27.5278 165.426 29.4305 165.426C31.2348 165.426 32.711 164.767 33.8591 163.45C35.0073 162.132 35.5814 160.321 35.5814 158.015C35.5814 155.71 35.0073 153.898 33.8591 152.581C32.711 151.263 31.2348 150.605 29.4305 150.605C27.5278 150.605 25.986 151.263 24.805 152.581Z" fill="white"/>
<path d="M49.3594 167.501C46.735 164.899 45.4228 161.737 45.4228 158.015C45.4228 154.293 46.735 151.148 49.3594 148.579C51.9838 145.977 55.2643 144.676 59.2009 144.676C63.1046 144.676 66.3687 145.977 68.9931 148.579C71.6503 151.148 72.9789 154.293 72.9789 158.015C72.9789 161.737 71.6503 164.899 68.9931 167.501C66.3687 170.07 63.1046 171.354 59.2009 171.354C55.2643 171.354 51.9838 170.07 49.3594 167.501ZM54.477 152.68C53.1976 154.063 52.5579 155.841 52.5579 158.015C52.5579 160.189 53.1976 161.968 54.477 163.351C55.7564 164.734 57.331 165.426 59.2009 165.426C61.0707 165.426 62.6454 164.734 63.9248 163.351C65.2041 161.968 65.8438 160.189 65.8438 158.015C65.8438 155.841 65.2041 154.063 63.9248 152.68C62.6454 151.296 61.0707 150.605 59.2009 150.605C57.331 150.605 55.7564 151.296 54.477 152.68Z" fill="white"/>
<path d="M76.9328 170.613V136.031H83.8218V164.685H89.4806V170.613H76.9328Z" fill="white"/>
<path d="M90.4801 145.417H97.6152L102.536 164.685H104.504L109.917 145.417H117.052L106.965 180H99.8295L102.536 170.613H97.1231L90.4801 145.417Z" fill="white"/>
<path d="M117.781 151.346V145.417H120.979V139.983H127.868V145.417H134.954V151.346H127.868V164.685H135.249V170.613H120.979V151.346H117.781Z" fill="white"/>
<path d="M141.574 167.501C138.982 164.899 137.686 161.737 137.686 158.015C137.686 154.293 138.982 151.148 141.574 148.579C144.198 145.977 147.413 144.676 151.218 144.676C155.089 144.676 158.271 145.961 160.765 148.53C163.258 151.099 164.504 154.261 164.504 158.015V159.497H144.821C145.084 161.144 145.822 162.544 147.036 163.697C148.25 164.849 149.644 165.426 151.218 165.426C152.957 165.426 154.45 164.932 155.696 163.944C156.188 163.516 156.582 163.022 156.877 162.462H164.258C163.701 164.141 162.881 165.623 161.798 166.908C159.174 169.872 155.647 171.354 151.218 171.354C147.413 171.354 144.198 170.07 141.574 167.501ZM145.067 155.298H157.123C156.861 153.981 156.188 152.877 155.106 151.988C154.056 151.066 152.76 150.605 151.218 150.605C149.677 150.605 148.364 151.049 147.282 151.939C146.199 152.828 145.461 153.948 145.067 155.298Z" fill="white"/>
<path d="M168.668 170.613V145.417H175.557V149.123H175.803C176.098 148.332 176.541 147.64 177.131 147.048C178.476 145.631 180.166 144.923 182.2 144.923H185.152V151.593H181.462C179.592 151.593 178.132 152.103 177.082 153.124C176.065 154.112 175.557 155.496 175.557 157.274V170.613H168.668Z" fill="white"/>
<path opacity="0.55" d="M40.7374 118.168C63.2297 118.168 81.4747 99.9413 81.4747 77.4305C81.4747 54.9197 63.2297 36.6931 40.7374 36.6931C18.245 36.6931 0 54.9381 0 77.4305C0 99.9228 18.245 118.168 40.7374 118.168Z" fill="#68A7FF"/>
<path opacity="0.55" d="M181.342 88.5655C193.364 88.5655 203.096 78.8151 203.096 66.8118C203.096 54.8085 193.346 45.0581 181.342 45.0581C169.339 45.0581 159.589 54.8085 159.589 66.8118C159.589 78.8151 169.339 88.5655 181.342 88.5655Z" fill="#68A7FF"/>
<path opacity="0.8" d="M179.015 43.6734C173.18 37.801 165.258 34.477 156.985 34.4216C149.69 34.3847 142.655 36.9146 137.059 41.4943L124.613 49.4165C121.695 51.2632 118.26 52.0942 114.825 51.7618C111.391 51.4294 108.159 49.9705 105.666 47.6068L92.0744 34.8094C91.4097 34.0338 90.7264 33.2951 90.0247 32.575C86.2575 28.7893 81.7885 25.7608 76.8764 23.6925C71.9458 21.6242 66.6644 20.5532 61.3275 20.5347C50.543 20.4793 40.1833 24.7266 32.5196 32.3164C28.7339 36.0836 25.7054 40.5525 23.6372 45.4646C21.5689 50.3952 20.4978 55.6767 20.4794 61.0135V61.3829C20.4794 71.0224 23.8957 80.3481 30.1189 87.6978C36.3422 95.0475 44.9846 99.9412 54.4949 101.529C54.8457 101.566 55.1966 101.622 55.5659 101.677C57.4126 101.936 59.2962 102.065 61.1613 102.065C66.4982 102.065 71.7981 101.012 76.7287 98.9624C81.6593 96.9127 86.1467 93.9211 89.9323 90.1539C90.4679 89.6183 91.0034 89.0643 91.502 88.4919L100.828 79.6833C104.484 76.2485 109.322 74.3649 114.345 74.4388C119.368 74.5311 124.151 76.5624 127.678 80.1265L131.464 83.9306C131.962 84.6323 132.498 85.3156 133.07 85.9989C137.853 91.6497 144.483 95.3984 151.777 96.5987C152.054 96.6357 152.313 96.6726 152.59 96.7095C154.011 96.9127 155.452 97.005 156.892 97.005C165.165 97.005 173.106 93.7179 178.96 87.864C184.814 82.0101 188.101 74.0694 188.101 65.7964C188.138 57.5233 184.888 49.5642 179.052 43.6919L179.015 43.6734Z" fill="url(#paint0_linear_8_941)"/>
<path d="M138.02 28.0323C145.757 28.0323 152.036 21.7537 152.036 14.0162C152.036 6.27865 145.757 0 138.02 0C130.282 0 124.003 6.27865 124.003 14.0162C124.003 21.7537 130.282 28.0323 138.02 28.0323Z" fill="white"/>
<defs>
<linearGradient id="paint0_linear_8_941" x1="104.262" y1="102.046" x2="104.262" y2="20.5162" gradientUnits="userSpaceOnUse">
<stop stop-color="white"/>
<stop offset="1" stop-color="#3686F8"/>
</linearGradient>
</defs>
</svg>
