<svg width="294" height="104" viewBox="0 0 294 104" fill="none" xmlns="http://www.w3.org/2000/svg">
<g clip-path="url(#clip0_8_948)">
<path d="M2.0322 56.9186C1.02961 56.5843 0.126389 55.7804 0.0180015 55.1209C-0.0994179 54.4615 0.623163 54.1905 1.62574 54.5247C13.3135 58.3639 25.5883 59.5563 37.6283 58.2013C49.7857 56.8373 61.6722 52.8807 72.4387 46.4129C72.9625 46.0967 74.0916 46.3767 74.9496 47.0452C75.8077 47.7137 76.0787 48.5086 75.5457 48.8248C64.5716 55.41 52.4232 59.4479 39.9586 60.848C27.3767 62.2572 14.4425 60.9835 2.04123 56.9095" fill="white"/>
<path d="M3.44125 65.1659C2.43867 64.8316 1.53545 64.0277 1.42706 63.3683C1.30964 62.7088 2.03222 62.4378 3.0348 62.7721C14.7225 66.6112 26.9974 67.8036 39.0374 66.4486C51.1948 65.0846 63.0813 61.128 73.8477 54.6602C74.3716 54.344 75.5006 54.6241 76.3587 55.2925C77.2167 55.961 77.4877 56.7559 76.9548 57.0721C65.9806 63.6573 53.8322 67.6952 41.3677 69.0954C28.7858 70.5045 15.8516 69.2308 3.45028 65.1568" fill="white"/>
<path d="M3.79348 65.2563C2.83606 65.0575 1.80638 64.3258 1.49928 63.6122C1.19219 62.8986 1.72509 62.483 2.68251 62.6727C14.8128 65.1569 27.2232 64.9311 39.0825 62.194C51.0322 59.4298 62.4038 54.1273 72.3664 46.458C72.8361 46.0967 73.938 46.3225 74.8232 46.9639C75.7173 47.6053 76.0606 48.4273 75.5909 48.7886C65.4657 56.5843 53.8773 61.9862 41.6928 64.8046C29.409 67.641 16.4928 67.8578 3.79348 65.2563Z" fill="white"/>
<path fill-rule="evenodd" clip-rule="evenodd" d="M44.24 3.74876C46.9497 -1.73444 56.8129 -2.1048 61.1664 8.75319C64.3097 16.5941 67.0103 28.5722 67.3535 40.469C68.1213 66.53 65.8361 84.5694 60.1368 104C59.7484 98.9413 57.0026 96.0597 54.9974 93.1781C63.8761 80.4051 62.2684 64.353 55.0606 56.1869C36.111 34.7148 60.5613 5.90771 44.231 3.75779" fill="white"/>
<path fill-rule="evenodd" clip-rule="evenodd" d="M32.2722 8.35574C16.8089 0.352267 9.81797 18.0123 9.15862 40.469C8.39088 66.53 10.676 84.5694 16.3754 104C15.2012 88.4627 11.1999 67.903 21.4515 56.1869C40.3018 34.6335 13.1057 11.7251 32.2722 8.35574Z" fill="white"/>
<path d="M108.658 40.1168C108.694 40.0355 108.893 39.8006 109.236 39.3942C109.588 38.9877 110.121 38.5541 110.835 38.0843C111.548 37.6146 112.47 37.1991 113.599 36.8377C114.728 36.4764 116.101 36.2867 117.726 36.2867C119.352 36.2867 121.005 36.5396 122.459 37.0455C123.914 37.5514 125.16 38.3011 126.208 39.3129C127.255 40.3246 128.068 41.5983 128.646 43.152C129.225 44.7057 129.523 46.5395 129.523 48.6713V66.9185H121.385V49.7734C121.385 45.2838 119.316 43.0346 115.17 43.0346C113.039 43.0346 111.422 43.8114 110.32 45.3561C109.218 46.9098 108.667 48.861 108.667 51.2277V66.9185H100.529V27.5696C100.529 26.2507 100.917 25.3384 101.694 24.8416C102.471 24.3357 103.492 24.0828 104.774 24.0828C105.668 24.0828 106.49 24.1821 107.24 24.3718C107.999 24.5706 108.468 24.7061 108.667 24.7783V40.1168H108.658Z" fill="white"/>
<path d="M164.613 66.6745C164.495 66.7107 164.071 66.792 163.339 66.9094C162.608 67.0268 161.623 67.1443 160.404 67.2617C159.184 67.3791 157.739 67.4875 156.077 67.5779C154.415 67.6772 152.591 67.7224 150.613 67.7224C147.75 67.7224 145.392 67.4785 143.55 66.9997C141.707 66.5119 140.244 65.8435 139.16 64.9943C138.076 64.1452 137.326 63.1425 136.92 62.0043C136.514 60.8661 136.306 59.6105 136.306 58.2555C136.306 56.5934 136.559 55.139 137.064 53.9015C137.57 52.6639 138.383 51.6432 139.503 50.8482C140.623 50.0533 142.068 49.4662 143.83 49.0777C145.591 48.6893 147.732 48.4996 150.252 48.4996C151.995 48.4996 153.449 48.5448 154.605 48.6441C155.77 48.7435 156.448 48.8067 156.637 48.8519V47.9215C156.637 46.0967 156.014 44.7056 154.777 43.7391C153.539 42.7725 151.615 42.2847 149.023 42.2847C147.858 42.2847 146.837 42.3931 145.943 42.6009C145.049 42.8086 144.29 43.0616 143.649 43.3597C143.008 43.6487 142.466 43.9378 142.023 44.2269C141.581 44.5159 141.219 44.7418 140.948 44.8953C140.406 44.5882 139.919 44.0914 139.494 43.4139C139.07 42.7364 138.853 41.9685 138.853 41.1194C138.853 40.2703 139.124 39.5386 139.666 38.9424C140.208 38.3462 140.93 37.8584 141.843 37.488C142.755 37.1177 143.803 36.8557 144.977 36.7022C146.16 36.5486 147.37 36.4673 148.608 36.4673C150.974 36.4673 153.133 36.6751 155.084 37.0815C157.035 37.488 158.724 38.1836 160.142 39.1773C161.551 40.1619 162.653 41.4808 163.421 43.1248C164.188 44.7689 164.586 46.8375 164.586 49.3126V66.6836L164.613 66.6745ZM156.592 53.8925C156.475 53.8563 156.24 53.8112 155.897 53.775C155.554 53.7389 155.12 53.6937 154.614 53.6576C154.108 53.6215 153.557 53.5944 152.961 53.5673C152.356 53.5492 151.751 53.5402 151.128 53.5402C149.692 53.5402 148.535 53.6576 147.641 53.8925C146.747 54.1273 146.061 54.4435 145.582 54.85C145.094 55.2565 144.769 55.7443 144.597 56.3043C144.426 56.8644 144.335 57.4606 144.335 58.0749C144.335 58.6169 144.417 59.1408 144.57 59.6466C144.724 60.1525 145.04 60.6042 145.528 61.0107C146.015 61.4172 146.693 61.7424 147.56 61.9953C148.436 62.2482 149.565 62.3747 150.956 62.3747C152.428 62.3747 153.648 62.3115 154.614 62.176C155.581 62.0405 156.24 61.9321 156.592 61.8598V53.9015V53.8925Z" fill="white"/>
<path d="M202.205 66.9095C201.97 66.9456 201.519 67.0179 200.841 67.1172C200.164 67.2166 199.324 67.2979 198.312 67.3792C197.301 67.4605 196.163 67.5328 194.88 67.6141C193.606 67.6954 192.27 67.7315 190.87 67.7315C184.52 67.7315 179.751 66.2681 176.581 63.3413C173.401 60.4146 171.821 56.3586 171.821 51.1645C171.821 48.7616 172.191 46.6479 172.923 44.8322C173.654 43.0075 174.657 41.4808 175.912 40.2433C177.168 39.0057 178.622 38.0663 180.266 37.4249C181.91 36.7835 183.662 36.4674 185.523 36.4674C186.841 36.4674 188.025 36.63 189.063 36.9642C190.102 37.2984 190.987 37.6778 191.71 38.1295C192.432 38.5812 192.974 38.9877 193.363 39.3761C193.751 39.7645 193.986 40.0174 194.058 40.1349V27.5877C194.058 26.2688 194.446 25.3565 195.223 24.8596C196 24.3538 197.021 24.1008 198.303 24.1008C199.197 24.1008 200.019 24.2002 200.769 24.3899C201.528 24.5886 201.997 24.7241 202.196 24.7964V66.9275L202.205 66.9095ZM180.185 52.0317C180.185 53.3867 180.365 54.6333 180.736 55.7805C181.106 56.9277 181.666 57.9214 182.425 58.7705C183.183 59.6196 184.15 60.2791 185.333 60.7488C186.516 61.2095 187.916 61.4444 189.542 61.4444C190.779 61.4444 191.791 61.3811 192.568 61.2727C193.345 61.1553 193.85 61.0379 194.076 60.9204V50.749C194.076 48.5448 193.516 46.7021 192.387 45.2296C191.267 43.7572 189.578 43.0255 187.329 43.0255C185.08 43.0255 183.328 43.8476 182.072 45.4916C180.817 47.1357 180.185 49.3217 180.185 52.0317Z" fill="white"/>
<path d="M237.413 66.6745C237.296 66.7107 236.871 66.792 236.139 66.9094C235.408 67.0268 234.423 67.1443 233.204 67.2617C231.985 67.3791 230.539 67.4875 228.877 67.5779C227.216 67.6772 225.391 67.7224 223.413 67.7224C220.55 67.7224 218.192 67.4785 216.35 66.9997C214.507 66.5119 213.044 65.8435 211.96 64.9943C210.876 64.1452 210.126 63.1425 209.72 62.0043C209.314 60.8661 209.106 59.6105 209.106 58.2555C209.106 56.5934 209.359 55.139 209.865 53.9015C210.37 52.6639 211.183 51.6432 212.303 50.8482C213.423 50.0533 214.868 49.4662 216.63 49.0777C218.391 48.6893 220.532 48.4996 223.052 48.4996C224.795 48.4996 226.249 48.5448 227.405 48.6441C228.57 48.7435 229.248 48.8067 229.437 48.8519V47.9215C229.437 46.0967 228.814 44.7056 227.577 43.7391C226.339 42.7725 224.416 42.2847 221.823 42.2847C220.658 42.2847 219.637 42.3931 218.743 42.6009C217.849 42.8086 217.09 43.0616 216.449 43.3597C215.808 43.6487 215.266 43.9378 214.823 44.2269C214.381 44.5159 214.019 44.7418 213.748 44.8953C213.206 44.5882 212.719 44.0914 212.294 43.4139C211.87 42.7364 211.653 41.9685 211.653 41.1194C211.653 40.2703 211.924 39.5386 212.466 38.9424C213.008 38.3462 213.73 37.8584 214.643 37.488C215.555 37.1177 216.603 36.8557 217.777 36.7022C218.96 36.5486 220.17 36.4673 221.408 36.4673C223.774 36.4673 225.933 36.6751 227.884 37.0815C229.835 37.488 231.524 38.1836 232.942 39.1773C234.351 40.1619 235.453 41.4808 236.221 43.1248C236.988 44.7689 237.386 46.8375 237.386 49.3126V66.6836L237.413 66.6745ZM229.392 53.8925C229.275 53.8563 229.04 53.8112 228.697 53.775C228.354 53.7389 227.92 53.6937 227.414 53.6576C226.908 53.6215 226.357 53.5944 225.761 53.5673C225.156 53.5492 224.551 53.5402 223.928 53.5402C222.492 53.5402 221.336 53.6576 220.441 53.8925C219.547 54.1273 218.861 54.4435 218.382 54.85C217.894 55.2565 217.569 55.7443 217.397 56.3043C217.226 56.8644 217.136 57.4606 217.136 58.0749C217.136 58.6169 217.217 59.1408 217.37 59.6466C217.524 60.1525 217.84 60.6042 218.328 61.0107C218.816 61.4172 219.493 61.7424 220.36 61.9953C221.236 62.2482 222.365 62.3747 223.756 62.3747C225.228 62.3747 226.448 62.3115 227.414 62.176C228.381 62.0405 229.04 61.9321 229.392 61.8598V53.9015V53.8925Z" fill="white"/>
<path d="M259.831 36.2866C262.198 36.2866 264.383 36.657 266.398 37.3887C268.412 38.1204 270.038 39.2857 271.275 40.8755C272.241 39.638 273.569 38.563 275.258 37.6506C276.947 36.7383 279.061 36.2866 281.617 36.2866C283.324 36.2866 284.932 36.5305 286.44 37.0093C287.949 37.4971 289.267 38.2107 290.387 39.1592C291.507 40.1077 292.392 41.282 293.034 42.6731C293.675 44.0643 293.991 45.6722 293.991 47.4969V66.9004H285.853V49.7552C285.853 47.4698 285.365 45.7716 284.399 44.6695C283.432 43.5674 282.014 43.0164 280.154 43.0164C278.293 43.0164 276.767 43.6578 275.683 44.9315C274.599 46.2052 274.057 48.1112 274.057 50.6224V66.8913H265.919V50.2159C265.919 47.7769 265.413 45.9613 264.41 44.7869C263.399 43.6036 261.8 43.0164 259.587 43.0164C257.961 43.0164 256.76 43.1519 255.983 43.4229C255.207 43.6939 254.629 43.9288 254.24 44.1185V66.9004H246.102V39.0689C246.256 38.9876 246.698 38.7979 247.439 38.4907C248.17 38.1836 249.137 37.8584 250.311 37.5332C251.485 37.208 252.885 36.9099 254.493 36.657C256.101 36.4041 257.871 36.2776 259.813 36.2776L259.831 36.2866Z" fill="white"/>
</g>
<defs>
<clipPath id="clip0_8_948">
<rect width="294" height="104" fill="white"/>
</clipPath>
</defs>
</svg>
