<svg width="262" height="78" viewBox="0 0 262 78" fill="none" xmlns="http://www.w3.org/2000/svg">
<g clip-path="url(#clip0_8_961)">
<path d="M35.2483 3.27087H42.9091V41.1583H34.9579C33.6409 41.1583 32.4548 40.3761 31.9435 39.1724L31.6531 38.4915C28.3484 41.1583 24.5037 42.4918 20.1109 42.4918C16.2417 42.4918 12.7815 41.6244 9.73849 39.8978C6.69547 38.1672 4.31095 35.7597 2.58902 32.6713C0.858917 29.583 0 26.0974 0 22.2146C0 16.3702 1.88553 11.5633 5.66476 7.79808C9.43991 4.03284 14.2539 2.14819 20.1068 2.14819C24.5446 2.14819 28.4383 3.50595 31.7881 6.21741L32.2626 5.17579C32.7943 4.01663 33.96 3.27087 35.2442 3.27087H35.2483ZM15.7182 28.4562C17.3215 30.0936 19.3665 30.9123 21.841 30.9123C24.3155 30.9123 26.3606 30.0936 27.9639 28.4562C29.5672 26.8188 30.373 24.7599 30.373 22.2835C30.373 19.8071 29.5713 17.7482 27.9639 16.1108C26.3606 14.4734 24.3278 13.6547 21.8738 13.6547C19.4197 13.6547 17.3174 14.4734 15.7141 16.1108C14.1108 17.7482 13.305 19.8071 13.305 22.2835C13.305 24.7599 14.1067 26.8229 15.7141 28.4562H15.7182Z" fill="white"/>
<path d="M120.502 3.12891H123.971V11.8874C123.971 13.6789 122.506 15.1298 120.698 15.1298H118.874C116.563 15.1298 114.886 15.6689 113.848 16.7429C112.809 17.821 112.289 19.5476 112.289 21.9348V41.2271H99.1191V3.33966H105.847C107.103 3.33966 108.248 4.05299 108.792 5.17162L109.954 7.55073C112.502 4.6042 116.019 3.12891 120.502 3.12891Z" fill="white"/>
<path d="M147.55 42.4916C141.32 42.4916 136.187 40.5867 132.151 36.7728C128.114 32.9589 126.097 28.1318 126.097 22.2833C126.097 16.4348 128.114 11.551 132.151 7.76141C136.187 3.97185 141.32 2.0791 147.55 2.0791C153.779 2.0791 158.912 3.98401 162.949 7.79788C166.986 11.6118 169.002 16.4389 169.002 22.2874C169.002 28.1358 166.973 32.963 162.912 36.7768C158.851 40.5907 153.73 42.4956 147.55 42.4956V42.4916ZM141.603 28.3912C143.161 29.98 145.145 30.7784 147.55 30.7784C149.955 30.7784 151.926 29.984 153.46 28.3912C154.994 26.8024 155.763 24.7678 155.763 22.2874C155.763 19.8069 154.994 17.7764 153.46 16.1835C151.926 14.5948 149.955 13.7963 147.55 13.7963C145.946 13.7963 144.515 14.1611 143.267 14.8825C142.016 15.608 141.038 16.6132 140.331 17.898C139.623 19.1828 139.267 20.6459 139.267 22.2833C139.267 24.7637 140.044 26.7984 141.603 28.3871V28.3912Z" fill="white"/>
<path d="M133.177 51.0476H141.685L131.271 78.0001H124.318L113.672 51.0476H122.22L127.774 67.7987L133.177 51.0476Z" fill="white"/>
<path d="M146.081 78.0001V51.0476H153.66V78.0001H146.081Z" fill="white"/>
<path d="M180.978 51.0476V57.7472H173.559V78.0001H166.062V57.7472H158.679V51.0476H180.982H180.978Z" fill="white"/>
<path d="M200.819 78.0001L199.302 73.6107H189.665L188.148 78.0001H180.144L190.827 51.0476H198.132L209.048 78.0001H200.811H200.819ZM197.477 67.7987L194.483 59.4414L191.494 67.7987H197.477Z" fill="white"/>
<path d="M211.249 54.8129C239.168 55.0034 265.45 45.0816 261.115 0.00820263C215.94 -0.611906 206.075 30.3409 206.619 46.1557C206.619 46.1557 227.069 37.4214 239.159 19.7423C239.159 19.7423 236.53 33.8143 211.249 54.8088V54.8129Z" fill="white"/>
<path d="M195.792 38.7548C208.488 24.549 192.86 6.0876 184.753 3.08838C168.724 28.0954 186.074 36.1973 190.921 39.0547C190.921 39.0547 187.232 31.1919 188.725 21.5944C188.725 21.5944 191.187 33.5021 195.792 38.7548Z" fill="white"/>
<path d="M83.8467 3.33978C82.6197 3.33978 81.4908 4.02068 80.9346 5.10688L80.2188 6.49706C76.7259 3.59917 72.689 2.14819 68.1122 2.14819C62.6846 2.14819 58.1405 3.97204 54.484 7.61974C50.8275 11.2674 48.9951 15.7825 48.9951 21.1608C48.9951 26.5392 50.8111 31.1839 54.4472 34.8073C58.0833 38.4347 62.6355 40.2464 68.1122 40.2464C71.7482 40.2464 75.0735 39.2899 78.0961 37.3688V38.4915C78.0961 40.6922 77.3394 42.4553 75.8301 43.7887C74.325 45.1141 72.4476 45.7828 70.194 45.7869H60.1978C58.39 45.7869 56.9258 47.2378 56.9258 49.0293V56.3125H70.4149C76.64 56.2882 81.5849 54.5616 85.2455 51.1206C88.9266 47.6593 90.7671 42.9579 90.7671 37.0202V3.33978H83.8467ZM76.1451 27.1593C74.6113 28.7278 72.6644 29.51 70.3044 29.51C67.9445 29.51 65.9976 28.7278 64.4638 27.1593C62.93 25.5908 62.1611 23.5926 62.1611 21.1608C62.1611 18.729 62.9259 16.8119 64.4638 15.2678C65.9976 13.7236 67.9445 12.9535 70.3044 12.9535C72.6644 12.9535 74.6113 13.7236 76.1451 15.2678C77.6789 16.8119 78.4478 18.7777 78.4478 21.1608C78.4478 23.544 77.6789 25.5948 76.1451 27.1593Z" fill="white"/>
</g>
<defs>
<clipPath id="clip0_8_961">
<rect width="261.585" height="78" fill="white"/>
</clipPath>
</defs>
</svg>
