<svg width="294" height="46" viewBox="0 0 294 46" fill="none" xmlns="http://www.w3.org/2000/svg">
<g clip-path="url(#clip0_8_1034)">
<path d="M245.762 0H232.542V10.5156H218.455V0H205.254V10.5156H199.554V18.6472H205.254V33.9248C205.254 42.1919 209.004 45.0996 218.673 45.0996C221.423 45.0996 222.63 45.038 225.655 44.8347V35.3786C224.741 35.4913 223.819 35.5366 222.899 35.5141C218.811 35.5141 218.473 34.1897 218.473 30.82V18.6472H232.561V33.9248C232.561 42.1919 236.311 45.0996 245.98 45.0996C248.73 45.0996 249.937 45.038 252.955 44.8347V35.3786C252.044 35.4915 251.124 35.5368 250.205 35.5141C246.118 35.5141 245.78 34.1897 245.78 30.82V18.6472H252.955V10.5156H245.762V0Z" fill="white"/>
<path d="M76.5517 22.091C76.5517 18.6473 76.3516 17.3968 75.6141 15.8752C72.9953 10.3864 64.6139 9.52393 59.245 9.52393C47.8385 9.52393 42.2697 13.2201 41.9322 20.9636H54.3449C54.8137 18.3209 56.0262 17.5262 59.245 17.5262C62.1951 17.5262 63.6201 18.4502 63.6201 20.5016C63.6201 23.8097 58.7888 23.6125 56.4387 23.939C49.3261 24.9309 40.3384 25.7871 40.3384 35.0276C40.3384 41.7731 45.0322 45.7404 52.8824 45.7404C57.5137 45.7404 60.8013 44.5453 63.9514 41.4282C63.9897 42.5042 64.1704 43.5708 64.4889 44.6007H77.9079C76.4329 41.6931 76.4329 38.1878 76.4329 34.8798C76.4204 29.625 76.5517 26.3908 76.5517 22.091ZM63.6701 31.1466C63.6701 33.3951 63.4701 34.4547 62.8701 35.4588C62.3044 36.309 61.5242 36.9997 60.6059 37.463C59.6877 37.9263 58.663 38.1464 57.6325 38.1016C55.2887 38.1016 53.8824 36.7833 53.8824 34.6641C53.8824 32.816 55.0262 31.621 57.5075 31.0973C59.6513 30.6353 61.8826 30.3026 63.6764 29.1137L63.6701 31.1466Z" fill="white"/>
<path d="M19.0565 35.9762C15.3064 35.9762 13.2876 33.1979 13.2876 27.9062C13.2876 22.0908 15.3002 18.9799 19.1252 18.9799C21.7378 18.9799 23.6878 20.6986 24.0878 23.4092H36.7694C36.0943 15.2098 29.0004 9.72095 19.0002 9.72095C7.66249 9.72095 0.0123291 16.9963 0.0123291 27.8446C0.0123291 38.3541 7.73124 45.5 18.9315 45.5C29.0629 45.5 35.7756 40.1405 37.0569 30.9494H24.3566C23.8191 34.3252 22.0753 35.9762 19.0565 35.9762Z" fill="white"/>
<path d="M294.006 29.4278C294.006 17.3968 286.556 9.65942 274.887 9.65942C263.749 9.65942 255.761 17.329 255.761 27.974C255.761 39.3459 264.549 45.6294 275.356 45.6294C282.856 45.6294 291.119 42.0626 293.269 34.3869H280.881C279.537 36.4383 277.931 37.2329 275.312 37.2329C271.218 37.2329 268.737 34.7688 268.537 30.4197H294.006V29.4278ZM268.581 23.8836C269.249 19.9779 271.393 18.0621 274.949 18.0621C278.843 18.0621 280.718 20.3784 281.056 23.8836H268.581Z" fill="white"/>
<path d="M102.852 22.6207C101.246 22.3558 95.2082 22.0047 95.2082 19.3804C95.2082 17.9882 96.4583 17.329 98.8271 17.329C101.915 17.329 103.058 18.056 103.527 20.5016H115.534C114.796 11.5753 107.283 9.52393 99.0958 9.52393C88.1581 9.52393 82.258 13.294 82.258 20.3045C82.258 28.701 90.2394 29.8899 96.7458 31.2821C101.515 32.3417 103.527 32.4711 103.527 34.5902C103.527 36.2412 101.983 37.3008 99.3646 37.3008C95.9458 37.3008 94.402 36.1057 94.0645 33.2658H81.5017C82.308 42.7896 90.1519 45.5001 99.0771 45.5001C110.015 45.5001 116.521 41.0709 116.521 33.5306C116.54 25.5284 109.427 23.8097 102.852 22.6207Z" fill="white"/>
<path d="M177.998 9.65942C166.86 9.65942 158.878 17.329 158.878 27.974C158.878 39.3459 167.666 45.6294 178.466 45.6294C185.967 45.6294 194.235 42.0626 196.379 34.3869H183.967C182.629 36.4383 181.016 37.2329 178.398 37.2329C174.31 37.2329 171.822 34.7688 171.622 30.4197H197.129V29.4278C197.129 17.3968 189.673 9.65942 177.998 9.65942ZM171.691 23.8774C172.36 19.9718 174.51 18.0559 178.066 18.0559C181.954 18.0559 183.835 20.3722 184.173 23.8774H171.691Z" fill="white"/>
<path d="M141.366 22.6207C139.753 22.3558 133.715 22.0047 133.715 19.3804C133.715 17.9882 134.965 17.329 137.34 17.329C140.428 17.329 141.566 18.056 142.034 20.5016H154.047C153.31 11.5753 145.791 9.52393 137.609 9.52393C126.671 9.52393 120.765 13.294 120.765 20.3045C120.765 28.701 128.753 29.8899 135.259 31.2821C140.022 32.3417 142.034 32.4711 142.034 34.5902C142.034 36.2412 140.491 37.3008 137.878 37.3008C134.453 37.3008 132.909 36.1057 132.578 33.2658H120.028C120.834 42.7896 128.684 45.5001 137.609 45.5001C148.541 45.5001 155.053 41.0709 155.053 33.5306C155.053 25.5284 147.941 23.8097 141.366 22.6207Z" fill="white"/>
</g>
<defs>
<clipPath id="clip0_8_1034">
<rect width="294" height="45.7588" fill="white"/>
</clipPath>
</defs>
</svg>
