<svg width="304" height="30" viewBox="0 0 304 30" fill="none" xmlns="http://www.w3.org/2000/svg">
<g clip-path="url(#clip0_8_1050)">
<path d="M3.14738 0.539279C2.54147 0.89318 2.00288 1.3482 1.54844 1.8959C1.09401 2.43518 0.715314 3.04187 0.429188 3.70754C0.143063 4.37321 0 5.00518 0 5.6203V23.9811C0 24.5877 0.143063 25.2281 0.429188 25.8938C0.715314 26.5595 1.08559 27.1577 1.54844 27.7054C2.00288 28.2531 2.54147 28.6997 3.14738 29.0621C3.75329 29.416 4.40128 29.6013 5.07452 29.6013H32.0292V23.9895H10.149V17.6108H29.9422V11.999H10.149V5.61187H32.0292V0H5.07452C4.40128 0 3.75329 0.176951 3.14738 0.539279Z" fill="white"/>
<path d="M57.8058 22.8604C57.6039 23.5092 57.2841 23.8462 56.8381 23.8799L56.3331 23.8294L46.4365 0H35.0673L45.6202 26.4247C46.1673 27.7139 46.9583 28.5649 48.0102 28.9778C49.0622 29.3823 50.4423 29.5929 52.1675 29.5929H57.343C58.0835 29.5929 58.782 29.5508 59.4216 29.4665C60.0612 29.3823 60.6587 29.2053 61.1973 28.9273C61.7359 28.6576 62.2324 28.2784 62.67 27.8066C63.1076 27.3263 63.5115 26.7027 63.8902 25.9191L74.1487 0H66.8945L57.8142 22.8519L57.8058 22.8604Z" fill="white"/>
<path d="M111.168 1.88748C110.714 1.33977 110.167 0.89318 109.544 0.539279C108.921 0.176951 108.29 0 107.642 0H82.261C81.5878 0 80.9398 0.176951 80.3339 0.539279C79.728 0.89318 79.1894 1.3482 78.735 1.88748C78.2805 2.43518 77.9018 3.03344 77.6157 3.69911C77.3296 4.36479 77.1865 4.99675 77.1865 5.61187V23.9811C77.1865 24.5877 77.3296 25.2281 77.6157 25.8938C77.9018 26.5595 78.2805 27.1577 78.735 27.7054C79.1894 28.2531 79.728 28.6997 80.3339 29.0621C80.9398 29.416 81.5878 29.6013 82.261 29.6013H107.642C108.282 29.6013 108.921 29.4244 109.544 29.0621C110.167 28.7082 110.714 28.2531 111.168 27.7054C111.623 27.1662 111.993 26.5595 112.287 25.8938C112.574 25.2281 112.717 24.5962 112.717 23.9811V5.61187C112.717 4.99675 112.574 4.36479 112.287 3.69911C112.001 3.03344 111.631 2.43518 111.168 1.88748ZM102.568 23.9811H87.344V5.61187H102.568V23.9811Z" fill="white"/>
<path d="M119.92 0.539279C119.314 0.89318 118.776 1.3482 118.321 1.8959C117.867 2.43518 117.497 3.04187 117.202 3.70754C116.916 4.37321 116.773 5.01361 116.773 5.6203V23.9811C116.773 24.5962 116.916 25.2281 117.202 25.8938C117.488 26.5595 117.859 27.1577 118.321 27.7054C118.776 28.2532 119.314 28.6997 119.92 29.0536C120.526 29.4075 121.174 29.5929 121.847 29.5929H147.228C147.868 29.5929 148.508 29.416 149.13 29.0536C149.753 28.6997 150.3 28.2447 150.755 27.7054C151.209 27.1662 151.588 26.5595 151.874 25.8938C152.16 25.2281 152.303 24.5962 152.303 23.9811V12.2939H142.154V23.9811H126.93V5.61187H152.311V0H121.856C121.183 0 120.535 0.176951 119.929 0.539279H119.92Z" fill="white"/>
<path d="M166.458 0H156.309V23.9811C156.309 24.5962 156.452 25.2281 156.738 25.8938C157.024 26.5595 157.394 27.1577 157.857 27.7054C158.312 28.2532 158.85 28.6997 159.456 29.0536C160.062 29.4075 160.71 29.5929 161.383 29.5929H185.182V23.9811H166.458V0Z" fill="white"/>
<path d="M223.279 1.88748C222.825 1.33977 222.278 0.89318 221.655 0.539279C221.032 0.185377 220.392 0 219.753 0H194.38C193.699 0 193.059 0.176951 192.453 0.539279C191.847 0.89318 191.309 1.3482 190.854 1.88748C190.4 2.43518 190.021 3.03344 189.735 3.69911C189.449 4.36479 189.306 4.99675 189.306 5.61187V23.9811C189.306 24.5877 189.449 25.2281 189.735 25.8938C190.021 26.5595 190.391 27.1577 190.854 27.7054C191.309 28.2531 191.847 28.6997 192.453 29.0621C193.059 29.416 193.707 29.6013 194.38 29.6013H219.753C220.392 29.6013 221.032 29.4244 221.655 29.0621C222.278 28.7082 222.825 28.2531 223.279 27.7054C223.733 27.1662 224.104 26.5595 224.398 25.8938C224.684 25.2281 224.827 24.5962 224.827 23.9811V5.61187C224.827 4.99675 224.684 4.36479 224.398 3.69911C224.112 3.03344 223.742 2.43518 223.279 1.88748ZM214.678 23.9811H199.455V5.61187H214.678V23.9811Z" fill="white"/>
<path d="M232.031 0.539279C231.425 0.89318 230.887 1.3482 230.432 1.88748C229.978 2.43518 229.599 3.03344 229.313 3.69912C229.027 4.36479 228.884 4.99675 228.884 5.61187V11.9905C228.884 12.6056 229.027 13.2376 229.313 13.9033C229.599 14.569 229.969 15.1672 230.432 15.7149C230.887 16.2626 231.425 16.7092 232.031 17.0631C232.637 17.417 233.285 17.6024 233.958 17.6024H254.256V23.9811H228.875V29.5929H259.331C259.979 29.5929 260.61 29.416 261.233 29.0536C261.855 28.6997 262.402 28.2447 262.857 27.697C263.311 27.1577 263.682 26.5511 263.976 25.8854C264.262 25.2197 264.405 24.5877 264.405 23.9726V17.594C264.405 16.9789 264.262 16.3469 263.976 15.6812C263.69 15.0155 263.32 14.4173 262.857 13.8696C262.402 13.3219 261.855 12.8753 261.233 12.5214C260.602 12.1675 259.97 11.9821 259.331 11.9821H239.033V5.61187H264.414V0H233.958C233.285 0 232.637 0.176951 232.031 0.539279Z" fill="white"/>
<path d="M304 5.61187V0H273.544C272.871 0 272.223 0.176951 271.617 0.539279C271.011 0.89318 270.473 1.3482 270.018 1.88748C269.564 2.43518 269.185 3.03344 268.899 3.69912C268.613 4.36479 268.47 4.99675 268.47 5.61187V11.9905C268.47 12.6056 268.613 13.2376 268.899 13.9033C269.185 14.569 269.555 15.1672 270.018 15.7149C270.473 16.2626 271.011 16.7092 271.617 17.0631C272.223 17.417 272.871 17.6024 273.544 17.6024H293.842V23.9811H268.461V29.5929H298.917C299.557 29.5929 300.196 29.416 300.819 29.0536C301.442 28.6997 301.989 28.2447 302.443 27.697C302.897 27.1577 303.276 26.5511 303.562 25.8854C303.848 25.2197 303.991 24.5877 303.991 23.9726V17.594C303.991 16.9789 303.848 16.3469 303.562 15.6812C303.276 15.0155 302.906 14.4173 302.443 13.8696C301.989 13.3219 301.442 12.8753 300.819 12.5214C300.196 12.1675 299.557 11.9821 298.917 11.9821H278.619V5.61187H304Z" fill="white"/>
</g>
<defs>
<clipPath id="clip0_8_1050">
<rect width="304" height="29.5929" fill="white"/>
</clipPath>
</defs>
</svg>
