<svg width="310" height="90" viewBox="0 0 310 90" fill="none" xmlns="http://www.w3.org/2000/svg">
<g clip-path="url(#clip0_8_1042)">
<path d="M118.106 62.8689H109.649L100.498 48.9109L91.2804 62.8689H83.0212L96.0212 43.9554L84.0288 26.2808H92.4367L100.564 38.6034L108.823 26.2808H117.082L104.892 43.5589L118.106 62.8689Z" fill="white"/>
<path d="M122.17 20.582V12.8679H129.966V20.582H122.17ZM122.302 62.869V26.2808H129.884V62.869H122.302Z" fill="white"/>
<path d="M179.604 25.4714C181.355 25.4084 183.098 25.7274 184.712 26.4063C186.327 27.0853 187.774 28.1078 188.954 29.4028C191.421 32.2217 192.706 35.8848 192.538 39.6276V62.869H185.022V41.3951C185.055 39.7051 184.769 38.024 184.18 36.4396C183.703 35.1556 182.852 34.0448 181.735 33.2516C180.603 32.5116 179.271 32.1368 177.919 32.1779C176.726 32.1624 175.547 32.4262 174.474 32.9483C173.401 33.4703 172.465 34.236 171.741 35.1842C170.06 37.3885 169.201 40.1113 169.313 42.8817V62.869H161.93V41.3951C162.086 38.9605 161.442 36.5416 160.096 34.507C159.475 33.7097 158.669 33.0752 157.748 32.658C156.828 32.2408 155.819 32.0533 154.81 32.1118C153.626 32.1041 152.455 32.3716 151.392 32.8934C150.328 33.4151 149.401 34.1767 148.682 35.1182C146.969 37.3091 146.091 40.0373 146.204 42.8157V62.8029H138.688V26.2808H144.04L145.329 31.0216C146.686 29.2885 148.42 27.8875 150.4 26.925C152.363 25.9606 154.522 25.4632 156.71 25.4714C158.984 25.4197 161.229 25.991 163.201 27.1233C165.092 28.2444 166.64 29.8609 167.678 31.7979C168.972 29.8282 170.745 28.2197 172.832 27.1233C174.917 26.02 177.245 25.4524 179.604 25.4714Z" fill="white"/>
<path d="M232.116 58.2932C228.3 61.7988 223.307 63.7441 218.125 63.7441C212.943 63.7441 207.95 61.7988 204.134 58.2932C202.303 56.5171 200.861 54.3797 199.899 52.0166C198.938 49.6536 198.479 47.1165 198.551 44.5664C198.503 41.1268 199.382 37.7378 201.095 34.7545C202.748 31.8443 205.187 29.4575 208.131 27.8663C211.213 26.2459 214.643 25.3992 218.125 25.3992C221.607 25.3992 225.037 26.2459 228.119 27.8663C231.064 29.4622 233.507 31.8475 235.172 34.7545C236.871 37.7425 237.744 41.1293 237.699 44.5664C237.775 47.117 237.318 49.6553 236.356 52.0189C235.395 54.3826 233.951 56.5196 232.116 58.2932ZM218.125 56.5587C220.276 56.5957 222.399 56.072 224.286 55.0391C226.071 54.0419 227.541 52.5657 228.532 50.7773C229.561 48.871 230.084 46.7326 230.051 44.5664C230.109 42.9834 229.845 41.4051 229.278 39.9262C228.71 38.4474 227.849 37.0984 226.748 35.9603C224.424 33.7829 221.359 32.5712 218.175 32.5712C214.99 32.5712 211.925 33.7829 209.602 35.9603C207.445 38.3074 206.248 41.3788 206.248 44.5664C206.248 47.754 207.445 50.8254 209.602 53.1725C210.716 54.2884 212.047 55.1645 213.513 55.7468C214.979 56.3292 216.548 56.6055 218.125 56.5587Z" fill="white"/>
<path d="M250.815 55.8816H268.423V62.8689H239.087V61.9108L256.761 33.1854H240.441V26.2808H268.357V27.437L250.815 55.8816Z" fill="white"/>
<path d="M304.4 58.2932C300.584 61.7988 295.591 63.7441 290.409 63.7441C285.227 63.7441 280.234 61.7988 276.418 58.2932C274.587 56.5171 273.145 54.3797 272.184 52.0166C271.223 49.6536 270.763 47.1165 270.835 44.5664C270.788 41.1268 271.666 37.7378 273.379 34.7545C275.032 31.8443 277.471 29.4575 280.416 27.8663C283.497 26.2459 286.927 25.3992 290.409 25.3992C293.891 25.3992 297.321 26.2459 300.403 27.8663C303.348 29.4622 305.791 31.8475 307.456 34.7545C309.144 37.757 309.999 41.1557 309.934 44.5994C310.011 47.1409 309.559 49.6707 308.607 52.0281C307.654 54.3855 306.222 56.5191 304.4 58.2932ZM290.409 56.5587C292.56 56.5957 294.684 56.072 296.571 55.0391C298.355 54.0419 299.825 52.5657 300.816 50.7773C301.845 48.871 302.368 46.7326 302.335 44.5664C302.393 42.9834 302.13 41.4051 301.562 39.9262C300.994 38.4474 300.134 37.0984 299.032 35.9603C296.708 33.7829 293.643 32.5712 290.459 32.5712C287.274 32.5712 284.209 33.7829 281.886 35.9603C279.729 38.3074 278.532 41.3788 278.532 44.5664C278.532 47.754 279.729 50.8254 281.886 53.1725C283 54.2884 284.331 55.1645 285.797 55.7468C287.263 56.3292 288.833 56.6055 290.409 56.5587Z" fill="white"/>
<path d="M41.3124 55.2209C37.9317 51.6639 34.5234 48.129 31.0876 44.6161C34.5234 41.1032 37.9317 37.5572 41.3124 33.9783C49.1587 25.9503 62.9019 11.7115 73.5893 0.611171L72.9781 0L66.569 6.17785C48.3988 22.6962 28.5768 33.9948 11.8107 25.0584C10.48 24.3238 9.24304 23.4308 8.12701 22.3989L4.12959 18.7648C2.90723 17.7242 1.70137 16.667 0.495531 15.6099L0 16.1219C8.50696 26.0329 17.559 35.4319 26.8423 44.6161C20.4497 50.8931 14.1562 57.2856 8.14354 63.9425L3.18803 69.4597C2.14738 70.682 1.09026 71.8879 0.0496035 73.0937L0.545134 73.5893C3.24313 71.2767 5.90262 68.9256 8.52353 66.5359C9.4719 65.6545 10.5261 64.8943 11.662 64.2729C28.5272 55.1218 48.4484 66.4864 66.6186 83.0213L73.0277 89.1991L73.6389 88.6045C62.902 77.5042 49.1421 63.2488 41.3124 55.2209Z" fill="white"/>
</g>
<defs>
<clipPath id="clip0_8_1042">
<rect width="310" height="89.1991" fill="white"/>
</clipPath>
</defs>
</svg>
