<svg width="454" height="454" viewBox="0 0 454 454" fill="none" xmlns="http://www.w3.org/2000/svg">
<rect width="454" height="454" fill="#1641BF"/>
<path d="M141.145 305V270.417H148.034V273.629H148.28C148.804 272.937 149.444 272.278 150.199 271.652C151.97 270.335 153.955 269.676 156.153 269.676C159.433 269.676 162.172 270.911 164.37 273.381C166.601 275.819 167.716 279.03 167.716 283.015C167.716 287 166.601 290.228 164.37 292.698C162.172 295.136 159.433 296.354 156.153 296.354C153.955 296.354 151.97 295.696 150.199 294.378C149.444 293.752 148.804 293.094 148.28 292.402H148.034V305H141.145ZM149.805 277.581C148.624 278.865 148.034 280.677 148.034 283.015C148.034 285.354 148.624 287.182 149.805 288.499C150.986 289.784 152.528 290.426 154.43 290.426C156.235 290.426 157.711 289.767 158.859 288.45C160.007 287.132 160.581 285.321 160.581 283.015C160.581 280.71 160.007 278.898 158.859 277.581C157.711 276.263 156.235 275.605 154.43 275.605C152.528 275.605 150.986 276.263 149.805 277.581Z" fill="white"/>
<path d="M174.359 292.501C171.735 289.899 170.423 286.737 170.423 283.015C170.423 279.293 171.735 276.148 174.359 273.579C176.984 270.977 180.264 269.676 184.201 269.676C188.105 269.676 191.369 270.977 193.993 273.579C196.65 276.148 197.979 279.293 197.979 283.015C197.979 286.737 196.65 289.899 193.993 292.501C191.369 295.07 188.105 296.354 184.201 296.354C180.264 296.354 176.984 295.07 174.359 292.501ZM179.477 277.68C178.198 279.063 177.558 280.841 177.558 283.015C177.558 285.189 178.198 286.968 179.477 288.351C180.756 289.734 182.331 290.426 184.201 290.426C186.071 290.426 187.645 289.734 188.925 288.351C190.204 286.968 190.844 285.189 190.844 283.015C190.844 280.841 190.204 279.063 188.925 277.68C187.645 276.296 186.071 275.605 184.201 275.605C182.331 275.605 180.756 276.296 179.477 277.68Z" fill="white"/>
<path d="M201.933 295.613V261.031H208.822V289.685H214.481V295.613H201.933Z" fill="white"/>
<path d="M215.48 270.417H222.615L227.536 289.685H229.504L234.917 270.417H242.052L231.965 305H224.83L227.536 295.613H222.123L215.48 270.417Z" fill="white"/>
<path d="M242.781 276.346V270.417H245.979V264.983H252.868V270.417H259.954V276.346H252.868V289.685H260.249V295.613H245.979V276.346H242.781Z" fill="white"/>
<path d="M266.574 292.501C263.982 289.899 262.686 286.737 262.686 283.015C262.686 279.293 263.982 276.148 266.574 273.579C269.198 270.977 272.413 269.676 276.218 269.676C280.089 269.676 283.271 270.961 285.765 273.53C288.258 276.099 289.504 279.261 289.504 283.015V284.497H269.821C270.084 286.144 270.822 287.544 272.036 288.697C273.25 289.849 274.644 290.426 276.218 290.426C277.957 290.426 279.45 289.932 280.696 288.944C281.188 288.516 281.582 288.022 281.877 287.462H289.258C288.701 289.141 287.881 290.623 286.798 291.908C284.174 294.872 280.647 296.354 276.218 296.354C272.413 296.354 269.198 295.07 266.574 292.501ZM270.067 280.298H282.123C281.861 278.981 281.188 277.877 280.106 276.988C279.056 276.066 277.76 275.605 276.218 275.605C274.677 275.605 273.364 276.049 272.282 276.939C271.199 277.828 270.461 278.948 270.067 280.298Z" fill="white"/>
<path d="M293.668 295.613V270.417H300.557V274.123H300.803C301.098 273.332 301.541 272.64 302.131 272.048C303.476 270.631 305.166 269.923 307.2 269.923H310.152V276.593H306.462C304.592 276.593 303.132 277.103 302.082 278.124C301.065 279.112 300.557 280.496 300.557 282.274V295.613H293.668Z" fill="white"/>
<path opacity="0.55" d="M165.737 243.168C188.23 243.168 206.475 224.941 206.475 202.43C206.475 179.92 188.23 161.693 165.737 161.693C143.245 161.693 125 179.938 125 202.43C125 224.923 143.245 243.168 165.737 243.168Z" fill="#68A7FF"/>
<path opacity="0.55" d="M306.342 213.565C318.364 213.565 328.096 203.815 328.096 191.812C328.096 179.808 318.346 170.058 306.342 170.058C294.339 170.058 284.589 179.808 284.589 191.812C284.589 203.815 294.339 213.565 306.342 213.565Z" fill="#68A7FF"/>
<path opacity="0.8" d="M304.015 168.673C298.18 162.801 290.258 159.477 281.985 159.422C274.69 159.385 267.655 161.915 262.059 166.494L249.613 174.417C246.695 176.263 243.26 177.094 239.825 176.762C236.391 176.429 233.159 174.971 230.666 172.607L217.074 159.809C216.41 159.034 215.726 158.295 215.025 157.575C211.257 153.789 206.789 150.761 201.876 148.693C196.946 146.624 191.664 145.553 186.328 145.535C175.543 145.479 165.183 149.727 157.52 157.316C153.734 161.084 150.705 165.553 148.637 170.465C146.569 175.395 145.498 180.677 145.479 186.014V186.383C145.479 196.022 148.896 205.348 155.119 212.698C161.342 220.048 169.985 224.941 179.495 226.529C179.846 226.566 180.197 226.622 180.566 226.677C182.413 226.936 184.296 227.065 186.161 227.065C191.498 227.065 196.798 226.012 201.729 223.962C206.659 221.913 211.147 218.921 214.932 215.154C215.468 214.618 216.003 214.064 216.502 213.492L225.828 204.683C229.484 201.249 234.322 199.365 239.345 199.439C244.368 199.531 249.151 201.562 252.678 205.126L256.464 208.931C256.962 209.632 257.498 210.316 258.07 210.999C262.853 216.65 269.483 220.398 276.777 221.599C277.054 221.636 277.313 221.673 277.59 221.71C279.011 221.913 280.452 222.005 281.892 222.005C290.165 222.005 298.106 218.718 303.96 212.864C309.814 207.01 313.101 199.069 313.101 190.796C313.138 182.523 309.888 174.564 304.052 168.692L304.015 168.673Z" fill="url(#paint0_linear_241_495)"/>
<path d="M263.02 153.032C270.757 153.032 277.036 146.754 277.036 139.016C277.036 131.279 270.757 125 263.02 125C255.282 125 249.003 131.279 249.003 139.016C249.003 146.754 255.282 153.032 263.02 153.032Z" fill="white"/>
<defs>
<linearGradient id="paint0_linear_241_495" x1="229.262" y1="227.046" x2="229.262" y2="145.516" gradientUnits="userSpaceOnUse">
<stop stop-color="white"/>
<stop offset="1" stop-color="#3686F8"/>
</linearGradient>
</defs>
</svg>
