<svg width="454" height="454" viewBox="0 0 454 454" fill="none" xmlns="http://www.w3.org/2000/svg">
<rect width="454" height="454" fill="#E73C79"/>
<g clip-path="url(#clip0_241_496)">
<path d="M77.0322 231.919C76.0296 231.584 75.1264 230.78 75.018 230.121C74.9006 229.462 75.6232 229.191 76.6257 229.525C88.3135 233.364 100.588 234.556 112.628 233.201C124.786 231.837 136.672 227.881 147.439 221.413C147.963 221.097 149.092 221.377 149.95 222.045C150.808 222.714 151.079 223.509 150.546 223.825C139.572 230.41 127.423 234.448 114.959 235.848C102.377 237.257 89.4425 235.984 77.0412 231.91" fill="white"/>
<path d="M78.4413 240.166C77.4387 239.832 76.5354 239.028 76.4271 238.368C76.3096 237.709 77.0322 237.438 78.0348 237.772C89.7225 241.611 101.997 242.804 114.037 241.449C126.195 240.085 138.081 236.128 148.848 229.66C149.372 229.344 150.501 229.624 151.359 230.293C152.217 230.961 152.488 231.756 151.955 232.072C140.981 238.657 128.832 242.695 116.368 244.095C103.786 245.505 90.8516 244.231 78.4503 240.157" fill="white"/>
<path d="M78.7935 240.256C77.8361 240.058 76.8064 239.326 76.4993 238.612C76.1922 237.899 76.7251 237.483 77.6825 237.673C89.8128 240.157 102.223 239.931 114.083 237.194C126.032 234.43 137.404 229.127 147.366 221.458C147.836 221.097 148.938 221.323 149.823 221.964C150.717 222.605 151.061 223.427 150.591 223.789C140.466 231.584 128.877 236.986 116.693 239.805C104.409 242.641 91.4928 242.858 78.7935 240.256Z" fill="white"/>
<path fill-rule="evenodd" clip-rule="evenodd" d="M119.24 178.749C121.95 173.266 131.813 172.895 136.166 183.753C139.31 191.594 142.01 203.572 142.354 215.469C143.121 241.53 140.836 259.569 135.137 279C134.748 273.941 132.003 271.06 129.997 268.178C138.876 255.405 137.268 239.353 130.061 231.187C111.111 209.715 135.561 180.908 119.231 178.758" fill="white"/>
<path fill-rule="evenodd" clip-rule="evenodd" d="M107.272 183.356C91.8089 175.352 84.818 193.012 84.1586 215.469C83.3909 241.53 85.676 259.569 91.3754 279C90.2012 263.463 86.1999 242.903 96.4515 231.187C115.302 209.634 88.1057 186.725 107.272 183.356Z" fill="white"/>
<path d="M183.658 215.117C183.694 215.036 183.893 214.801 184.236 214.394C184.588 213.988 185.121 213.554 185.835 213.084C186.548 212.615 187.47 212.199 188.599 211.838C189.728 211.476 191.101 211.287 192.726 211.287C194.352 211.287 196.005 211.54 197.459 212.046C198.914 212.551 200.16 213.301 201.208 214.313C202.255 215.325 203.068 216.598 203.646 218.152C204.225 219.706 204.523 221.539 204.523 223.671V241.919H196.385V224.773C196.385 220.284 194.316 218.035 190.17 218.035C188.039 218.035 186.422 218.811 185.32 220.356C184.218 221.91 183.667 223.861 183.667 226.228V241.919H175.529V202.57C175.529 201.251 175.917 200.338 176.694 199.842C177.471 199.336 178.492 199.083 179.774 199.083C180.668 199.083 181.49 199.182 182.24 199.372C182.999 199.571 183.468 199.706 183.667 199.778V215.117H183.658Z" fill="white"/>
<path d="M239.613 241.675C239.495 241.711 239.071 241.792 238.339 241.909C237.608 242.027 236.623 242.144 235.404 242.262C234.184 242.379 232.739 242.488 231.077 242.578C229.415 242.677 227.591 242.722 225.613 242.722C222.75 242.722 220.392 242.478 218.55 242C216.707 241.512 215.244 240.843 214.16 239.994C213.076 239.145 212.326 238.143 211.92 237.004C211.514 235.866 211.306 234.611 211.306 233.256C211.306 231.593 211.559 230.139 212.064 228.901C212.57 227.664 213.383 226.643 214.503 225.848C215.623 225.053 217.068 224.466 218.83 224.078C220.591 223.689 222.732 223.5 225.252 223.5C226.995 223.5 228.449 223.545 229.605 223.644C230.77 223.743 231.448 223.807 231.637 223.852V222.921C231.637 221.097 231.014 219.706 229.777 218.739C228.539 217.773 226.615 217.285 224.023 217.285C222.858 217.285 221.837 217.393 220.943 217.601C220.049 217.809 219.29 218.062 218.649 218.36C218.008 218.649 217.466 218.938 217.023 219.227C216.581 219.516 216.219 219.742 215.948 219.895C215.406 219.588 214.919 219.091 214.494 218.414C214.07 217.736 213.853 216.969 213.853 216.119C213.853 215.27 214.124 214.539 214.666 213.942C215.208 213.346 215.93 212.858 216.843 212.488C217.755 212.118 218.803 211.856 219.977 211.702C221.16 211.549 222.37 211.467 223.608 211.467C225.974 211.467 228.133 211.675 230.084 212.082C232.035 212.488 233.724 213.184 235.142 214.177C236.551 215.162 237.653 216.481 238.421 218.125C239.188 219.769 239.586 221.837 239.586 224.313V241.684L239.613 241.675ZM231.592 228.892C231.475 228.856 231.24 228.811 230.897 228.775C230.554 228.739 230.12 228.694 229.614 228.658C229.108 228.621 228.557 228.594 227.961 228.567C227.356 228.549 226.751 228.54 226.128 228.54C224.692 228.54 223.535 228.658 222.641 228.892C221.747 229.127 221.061 229.443 220.582 229.85C220.094 230.256 219.769 230.744 219.597 231.304C219.426 231.864 219.335 232.461 219.335 233.075C219.335 233.617 219.417 234.141 219.57 234.647C219.724 235.153 220.04 235.604 220.528 236.011C221.015 236.417 221.693 236.742 222.56 236.995C223.436 237.248 224.565 237.375 225.956 237.375C227.428 237.375 228.648 237.311 229.614 237.176C230.581 237.04 231.24 236.932 231.592 236.86V228.901V228.892Z" fill="white"/>
<path d="M277.205 241.909C276.97 241.946 276.519 242.018 275.841 242.117C275.164 242.217 274.324 242.298 273.312 242.379C272.301 242.461 271.163 242.533 269.88 242.614C268.606 242.695 267.27 242.732 265.87 242.732C259.52 242.732 254.751 241.268 251.581 238.341C248.401 235.415 246.821 231.359 246.821 226.164C246.821 223.762 247.191 221.648 247.923 219.832C248.654 218.007 249.657 216.481 250.912 215.243C252.168 214.006 253.622 213.066 255.266 212.425C256.91 211.784 258.662 211.467 260.523 211.467C261.841 211.467 263.025 211.63 264.063 211.964C265.102 212.298 265.987 212.678 266.71 213.129C267.432 213.581 267.974 213.988 268.363 214.376C268.751 214.765 268.986 215.017 269.058 215.135V202.588C269.058 201.269 269.446 200.356 270.223 199.86C271 199.354 272.021 199.101 273.303 199.101C274.197 199.101 275.019 199.2 275.769 199.39C276.528 199.589 276.997 199.724 277.196 199.796V241.928L277.205 241.909ZM255.185 227.032C255.185 228.387 255.365 229.633 255.736 230.78C256.106 231.928 256.666 232.921 257.425 233.771C258.183 234.62 259.15 235.279 260.333 235.749C261.516 236.209 262.916 236.444 264.542 236.444C265.779 236.444 266.791 236.381 267.568 236.273C268.345 236.155 268.85 236.038 269.076 235.92V225.749C269.076 223.545 268.516 221.702 267.387 220.23C266.267 218.757 264.578 218.026 262.329 218.026C260.08 218.026 258.328 218.848 257.072 220.492C255.817 222.136 255.185 224.322 255.185 227.032Z" fill="white"/>
<path d="M312.413 241.675C312.296 241.711 311.871 241.792 311.139 241.909C310.408 242.027 309.423 242.144 308.204 242.262C306.985 242.379 305.539 242.488 303.877 242.578C302.216 242.677 300.391 242.722 298.413 242.722C295.55 242.722 293.192 242.478 291.35 242C289.507 241.512 288.044 240.843 286.96 239.994C285.876 239.145 285.126 238.143 284.72 237.004C284.314 235.866 284.106 234.611 284.106 233.256C284.106 231.593 284.359 230.139 284.865 228.901C285.37 227.664 286.183 226.643 287.303 225.848C288.423 225.053 289.868 224.466 291.63 224.078C293.391 223.689 295.532 223.5 298.052 223.5C299.795 223.5 301.249 223.545 302.405 223.644C303.57 223.743 304.248 223.807 304.437 223.852V222.921C304.437 221.097 303.814 219.706 302.577 218.739C301.339 217.773 299.416 217.285 296.823 217.285C295.658 217.285 294.637 217.393 293.743 217.601C292.849 217.809 292.09 218.062 291.449 218.36C290.808 218.649 290.266 218.938 289.823 219.227C289.381 219.516 289.019 219.742 288.748 219.895C288.206 219.588 287.719 219.091 287.294 218.414C286.87 217.736 286.653 216.969 286.653 216.119C286.653 215.27 286.924 214.539 287.466 213.942C288.008 213.346 288.73 212.858 289.643 212.488C290.555 212.118 291.603 211.856 292.777 211.702C293.96 211.549 295.17 211.467 296.408 211.467C298.774 211.467 300.933 211.675 302.884 212.082C304.835 212.488 306.524 213.184 307.942 214.177C309.351 215.162 310.453 216.481 311.221 218.125C311.988 219.769 312.386 221.837 312.386 224.313V241.684L312.413 241.675ZM304.392 228.892C304.275 228.856 304.04 228.811 303.697 228.775C303.354 228.739 302.92 228.694 302.414 228.658C301.908 228.621 301.357 228.594 300.761 228.567C300.156 228.549 299.551 228.54 298.928 228.54C297.492 228.54 296.336 228.658 295.441 228.892C294.547 229.127 293.861 229.443 293.382 229.85C292.894 230.256 292.569 230.744 292.397 231.304C292.226 231.864 292.136 232.461 292.136 233.075C292.136 233.617 292.217 234.141 292.37 234.647C292.524 235.153 292.84 235.604 293.328 236.011C293.816 236.417 294.493 236.742 295.36 236.995C296.236 237.248 297.365 237.375 298.756 237.375C300.228 237.375 301.448 237.311 302.414 237.176C303.381 237.04 304.04 236.932 304.392 236.86V228.901V228.892Z" fill="white"/>
<path d="M334.831 211.287C337.198 211.287 339.383 211.657 341.398 212.389C343.412 213.12 345.038 214.286 346.275 215.876C347.241 214.638 348.569 213.563 350.258 212.651C351.947 211.738 354.061 211.287 356.617 211.287C358.324 211.287 359.932 211.531 361.44 212.009C362.949 212.497 364.267 213.211 365.387 214.159C366.507 215.108 367.392 216.282 368.034 217.673C368.675 219.064 368.991 220.672 368.991 222.497V241.9H360.853V224.755C360.853 222.47 360.365 220.772 359.399 219.669C358.432 218.567 357.014 218.016 355.154 218.016C353.293 218.016 351.767 218.658 350.683 219.931C349.599 221.205 349.057 223.111 349.057 225.622V241.891H340.919V225.216C340.919 222.777 340.413 220.961 339.41 219.787C338.399 218.604 336.8 218.016 334.587 218.016C332.961 218.016 331.76 218.152 330.983 218.423C330.207 218.694 329.629 218.929 329.24 219.118V241.9H321.102V214.069C321.256 213.988 321.698 213.798 322.439 213.491C323.17 213.184 324.137 212.858 325.311 212.533C326.485 212.208 327.885 211.91 329.493 211.657C331.101 211.404 332.871 211.278 334.813 211.278L334.831 211.287Z" fill="white"/>
</g>
<defs>
<clipPath id="clip0_241_496">
<rect width="294" height="104" fill="white" transform="translate(75 175)"/>
</clipPath>
</defs>
</svg>
