<svg width="454" height="454" viewBox="0 0 454 454" fill="none" xmlns="http://www.w3.org/2000/svg">
<rect width="454" height="454" fill="#08C365"/>
<g clip-path="url(#clip0_241_497)">
<path d="M131.248 191.271H138.909V229.158H130.958C129.641 229.158 128.455 228.376 127.944 227.172L127.653 226.491C124.348 229.158 120.504 230.492 116.111 230.492C112.242 230.492 108.782 229.624 105.738 227.898C102.695 226.167 100.311 223.76 98.589 220.671C96.8589 217.583 96 214.097 96 210.215C96 204.37 97.8855 199.563 101.665 195.798C105.44 192.033 110.254 190.148 116.107 190.148C120.545 190.148 124.438 191.506 127.788 194.217L128.263 193.176C128.794 192.017 129.96 191.271 131.244 191.271H131.248ZM111.718 216.456C113.322 218.094 115.367 218.912 117.841 218.912C120.316 218.912 122.361 218.094 123.964 216.456C125.567 214.819 126.373 212.76 126.373 210.284C126.373 207.807 125.571 205.748 123.964 204.111C122.361 202.473 120.328 201.655 117.874 201.655C115.42 201.655 113.317 202.473 111.714 204.111C110.111 205.748 109.305 207.807 109.305 210.284C109.305 212.76 110.107 214.823 111.714 216.456H111.718Z" fill="white"/>
<path d="M216.502 191.129H219.971V199.887C219.971 201.679 218.506 203.13 216.698 203.13H214.874C212.563 203.13 210.886 203.669 209.848 204.743C208.809 205.821 208.289 207.548 208.289 209.935V229.227H195.119V191.34H201.847C203.103 191.34 204.248 192.053 204.792 193.172L205.954 195.551C208.502 192.604 212.019 191.129 216.502 191.129Z" fill="white"/>
<path d="M243.55 230.492C237.32 230.492 232.187 228.587 228.151 224.773C224.114 220.959 222.097 216.132 222.097 210.283C222.097 204.435 224.114 199.551 228.151 195.761C232.187 191.972 237.32 190.079 243.55 190.079C249.779 190.079 254.912 191.984 258.949 195.798C262.986 199.612 265.002 204.439 265.002 210.287C265.002 216.136 262.973 220.963 258.912 224.777C254.851 228.591 249.73 230.496 243.55 230.496V230.492ZM237.603 216.391C239.161 217.98 241.145 218.778 243.55 218.778C245.955 218.778 247.926 217.984 249.46 216.391C250.994 214.802 251.763 212.768 251.763 210.287C251.763 207.807 250.994 205.776 249.46 204.184C247.926 202.595 245.955 201.796 243.55 201.796C241.946 201.796 240.515 202.161 239.267 202.883C238.016 203.608 237.038 204.613 236.331 205.898C235.623 207.183 235.267 208.646 235.267 210.283C235.267 212.764 236.044 214.798 237.603 216.387V216.391Z" fill="white"/>
<path d="M229.177 239.048H237.685L227.271 266H220.318L209.672 239.048H218.22L223.774 255.799L229.177 239.048Z" fill="white"/>
<path d="M242.081 266V239.048H249.66V266H242.081Z" fill="white"/>
<path d="M276.978 239.048V245.747H269.559V266H262.062V245.747H254.679V239.048H276.982H276.978Z" fill="white"/>
<path d="M296.819 266L295.302 261.611H285.665L284.148 266H276.144L286.827 239.048H294.132L305.048 266H296.811H296.819ZM293.477 255.799L290.483 247.441L287.494 255.799H293.477Z" fill="white"/>
<path d="M307.249 242.813C335.168 243.003 361.45 233.082 357.115 188.008C311.94 187.388 302.075 218.341 302.619 234.156C302.619 234.156 323.069 225.421 335.159 207.742C335.159 207.742 332.53 221.814 307.249 242.809V242.813Z" fill="white"/>
<path d="M291.792 226.755C304.488 212.549 288.86 194.088 280.753 191.088C264.724 216.095 282.074 224.197 286.921 227.055C286.921 227.055 283.232 219.192 284.725 209.594C284.725 209.594 287.187 221.502 291.792 226.755Z" fill="white"/>
<path d="M179.847 191.34C178.62 191.34 177.491 192.021 176.935 193.107L176.219 194.497C172.726 191.599 168.689 190.148 164.112 190.148C158.685 190.148 154.141 191.972 150.484 195.62C146.827 199.267 144.995 203.782 144.995 209.161C144.995 214.539 146.811 219.184 150.447 222.807C154.083 226.435 158.636 228.246 164.112 228.246C167.748 228.246 171.073 227.29 174.096 225.369V226.491C174.096 228.692 173.339 230.455 171.83 231.789C170.325 233.114 168.448 233.783 166.194 233.787H156.198C154.39 233.787 152.926 235.238 152.926 237.029V244.312H166.415C172.64 244.288 177.585 242.562 181.246 239.121C184.927 235.659 186.767 230.958 186.767 225.02V191.34H179.847ZM172.145 215.159C170.611 216.728 168.664 217.51 166.304 217.51C163.944 217.51 161.998 216.728 160.464 215.159C158.93 213.591 158.161 211.593 158.161 209.161C158.161 206.729 158.926 204.812 160.464 203.268C161.998 201.724 163.944 200.953 166.304 200.953C168.664 200.953 170.611 201.724 172.145 203.268C173.679 204.812 174.448 206.778 174.448 209.161C174.448 211.544 173.679 213.595 172.145 215.159Z" fill="white"/>
</g>
<defs>
<clipPath id="clip0_241_497">
<rect width="261.585" height="78" fill="white" transform="translate(96 188)"/>
</clipPath>
</defs>
</svg>
