<svg width="454" height="454" viewBox="0 0 454 454" fill="none" xmlns="http://www.w3.org/2000/svg">
<rect width="454" height="454" fill="#AF8940"/>
<g clip-path="url(#clip0_241_498)">
<path d="M325.762 198H312.542V208.516H298.455V198H285.254V208.516H279.554V216.647H285.254V231.925C285.254 240.192 289.004 243.1 298.673 243.1C301.423 243.1 302.63 243.038 305.655 242.835V233.379C304.741 233.491 303.819 233.537 302.899 233.514C298.811 233.514 298.473 232.19 298.473 228.82V216.647H312.561V231.925C312.561 240.192 316.311 243.1 325.98 243.1C328.73 243.1 329.937 243.038 332.955 242.835V233.379C332.044 233.491 331.124 233.537 330.205 233.514C326.118 233.514 325.78 232.19 325.78 228.82V216.647H332.955V208.516H325.762V198Z" fill="white"/>
<path d="M156.552 220.091C156.552 216.647 156.352 215.397 155.614 213.875C152.995 208.386 144.614 207.524 139.245 207.524C127.839 207.524 122.27 211.22 121.932 218.964H134.345C134.814 216.321 136.026 215.526 139.245 215.526C142.195 215.526 143.62 216.45 143.62 218.502C143.62 221.81 138.789 221.613 136.439 221.939C129.326 222.931 120.338 223.787 120.338 233.028C120.338 239.773 125.032 243.74 132.882 243.74C137.514 243.74 140.801 242.545 143.951 239.428C143.99 240.504 144.17 241.571 144.489 242.601H157.908C156.433 239.693 156.433 236.188 156.433 232.88C156.42 227.625 156.552 224.391 156.552 220.091ZM143.67 229.147C143.67 231.395 143.47 232.455 142.87 233.459C142.304 234.309 141.524 235 140.606 235.463C139.688 235.926 138.663 236.146 137.632 236.102C135.289 236.102 133.882 234.783 133.882 232.664C133.882 230.816 135.026 229.621 137.507 229.097C139.651 228.635 141.883 228.303 143.676 227.114L143.67 229.147Z" fill="white"/>
<path d="M99.0565 233.976C95.3064 233.976 93.2876 231.198 93.2876 225.906C93.2876 220.091 95.3002 216.98 99.1252 216.98C101.738 216.98 103.688 218.699 104.088 221.409H116.769C116.094 213.21 109 207.721 99.0002 207.721C87.6625 207.721 80.0123 214.996 80.0123 225.845C80.0123 236.354 87.7312 243.5 98.9315 243.5C109.063 243.5 115.776 238.141 117.057 228.949H104.357C103.819 232.325 102.075 233.976 99.0565 233.976Z" fill="white"/>
<path d="M374.006 227.428C374.006 215.397 366.556 207.659 354.887 207.659C343.749 207.659 335.761 215.329 335.761 225.974C335.761 237.346 344.549 243.629 355.356 243.629C362.856 243.629 371.119 240.063 373.269 232.387H360.881C359.537 234.438 357.931 235.233 355.312 235.233C351.218 235.233 348.737 232.769 348.537 228.42H374.006V227.428ZM348.581 221.884C349.249 217.978 351.393 216.062 354.949 216.062C358.843 216.062 360.718 218.378 361.056 221.884H348.581Z" fill="white"/>
<path d="M182.852 220.621C181.246 220.356 175.208 220.005 175.208 217.38C175.208 215.988 176.458 215.329 178.827 215.329C181.915 215.329 183.058 216.056 183.527 218.502H195.534C194.796 209.575 187.283 207.524 179.096 207.524C168.158 207.524 162.258 211.294 162.258 218.304C162.258 226.701 170.239 227.89 176.746 229.282C181.515 230.342 183.527 230.471 183.527 232.59C183.527 234.241 181.983 235.301 179.365 235.301C175.946 235.301 174.402 234.106 174.064 231.266H161.502C162.308 240.79 170.152 243.5 179.077 243.5C190.015 243.5 196.521 239.071 196.521 231.531C196.54 223.528 189.427 221.81 182.852 220.621Z" fill="white"/>
<path d="M257.998 207.659C246.86 207.659 238.878 215.329 238.878 225.974C238.878 237.346 247.666 243.629 258.466 243.629C265.967 243.629 274.235 240.063 276.379 232.387H263.967C262.629 234.438 261.016 235.233 258.398 235.233C254.31 235.233 251.822 232.769 251.622 228.42H277.129V227.428C277.129 215.397 269.673 207.659 257.998 207.659ZM251.691 221.877C252.36 217.972 254.51 216.056 258.066 216.056C261.954 216.056 263.835 218.372 264.173 221.877H251.691Z" fill="white"/>
<path d="M221.366 220.621C219.753 220.356 213.715 220.005 213.715 217.38C213.715 215.988 214.965 215.329 217.34 215.329C220.428 215.329 221.566 216.056 222.034 218.502H234.047C233.31 209.575 225.791 207.524 217.609 207.524C206.671 207.524 200.765 211.294 200.765 218.304C200.765 226.701 208.753 227.89 215.259 229.282C220.022 230.342 222.034 230.471 222.034 232.59C222.034 234.241 220.491 235.301 217.878 235.301C214.453 235.301 212.909 234.106 212.578 231.266H200.028C200.834 240.79 208.684 243.5 217.609 243.5C228.541 243.5 235.053 239.071 235.053 231.531C235.053 223.528 227.941 221.81 221.366 220.621Z" fill="white"/>
</g>
<defs>
<clipPath id="clip0_241_498">
<rect width="294" height="45.7588" fill="white" transform="translate(80 198)"/>
</clipPath>
</defs>
</svg>
