<svg width="454" height="454" viewBox="0 0 454 454" fill="none" xmlns="http://www.w3.org/2000/svg">
<rect width="454" height="454" fill="#119D72"/>
<g clip-path="url(#clip0_241_499)">
<path d="M78.1474 212.539C77.5415 212.893 77.0029 213.348 76.5484 213.896C76.094 214.435 75.7153 215.042 75.4292 215.708C75.1431 216.373 75 217.005 75 217.62V235.981C75 236.588 75.1431 237.228 75.4292 237.894C75.7153 238.559 76.0856 239.158 76.5484 239.705C77.0029 240.253 77.5415 240.7 78.1474 241.062C78.7533 241.416 79.4013 241.601 80.0745 241.601H107.029V235.989H85.149V229.611H104.942V223.999H85.149V217.612H107.029V212H80.0745C79.4013 212 78.7533 212.177 78.1474 212.539Z" fill="white"/>
<path d="M132.806 234.86C132.604 235.509 132.284 235.846 131.838 235.88L131.333 235.829L121.437 212H110.067L120.62 238.425C121.167 239.714 121.958 240.565 123.01 240.978C124.062 241.382 125.442 241.593 127.167 241.593H132.343C133.084 241.593 133.782 241.551 134.422 241.467C135.061 241.382 135.659 241.205 136.197 240.927C136.736 240.658 137.232 240.278 137.67 239.807C138.108 239.326 138.512 238.703 138.89 237.919L149.149 212H141.895L132.814 234.852L132.806 234.86Z" fill="white"/>
<path d="M186.168 213.887C185.714 213.34 185.167 212.893 184.544 212.539C183.921 212.177 183.29 212 182.642 212H157.261C156.588 212 155.94 212.177 155.334 212.539C154.728 212.893 154.189 213.348 153.735 213.887C153.281 214.435 152.902 215.033 152.616 215.699C152.33 216.365 152.187 216.997 152.187 217.612V235.981C152.187 236.588 152.33 237.228 152.616 237.894C152.902 238.559 153.281 239.158 153.735 239.705C154.189 240.253 154.728 240.7 155.334 241.062C155.94 241.416 156.588 241.601 157.261 241.601H182.642C183.282 241.601 183.921 241.424 184.544 241.062C185.167 240.708 185.714 240.253 186.168 239.705C186.623 239.166 186.993 238.559 187.287 237.894C187.574 237.228 187.717 236.596 187.717 235.981V217.612C187.717 216.997 187.574 216.365 187.287 215.699C187.001 215.033 186.631 214.435 186.168 213.887ZM177.568 235.981H162.344V217.612H177.568V235.981Z" fill="white"/>
<path d="M194.92 212.539C194.314 212.893 193.776 213.348 193.321 213.896C192.867 214.435 192.497 215.042 192.202 215.708C191.916 216.373 191.773 217.014 191.773 217.62V235.981C191.773 236.596 191.916 237.228 192.202 237.894C192.488 238.559 192.859 239.158 193.321 239.705C193.776 240.253 194.314 240.7 194.92 241.054C195.526 241.408 196.174 241.593 196.847 241.593H222.228C222.868 241.593 223.508 241.416 224.13 241.054C224.753 240.7 225.3 240.245 225.755 239.705C226.209 239.166 226.588 238.559 226.874 237.894C227.16 237.228 227.303 236.596 227.303 235.981V224.294H217.154V235.981H201.93V217.612H227.311V212H196.856C196.183 212 195.535 212.177 194.929 212.539H194.92Z" fill="white"/>
<path d="M241.458 212H231.309V235.981C231.309 236.596 231.452 237.228 231.738 237.894C232.024 238.559 232.394 239.158 232.857 239.705C233.312 240.253 233.85 240.7 234.456 241.054C235.062 241.408 235.71 241.593 236.383 241.593H260.182V235.981H241.458V212Z" fill="white"/>
<path d="M298.279 213.887C297.825 213.34 297.278 212.893 296.655 212.539C296.032 212.185 295.392 212 294.753 212H269.38C268.699 212 268.059 212.177 267.453 212.539C266.847 212.893 266.309 213.348 265.854 213.887C265.4 214.435 265.021 215.033 264.735 215.699C264.449 216.365 264.306 216.997 264.306 217.612V235.981C264.306 236.588 264.449 237.228 264.735 237.894C265.021 238.559 265.391 239.158 265.854 239.705C266.309 240.253 266.847 240.7 267.453 241.062C268.059 241.416 268.707 241.601 269.38 241.601H294.753C295.392 241.601 296.032 241.424 296.655 241.062C297.278 240.708 297.825 240.253 298.279 239.705C298.733 239.166 299.104 238.559 299.398 237.894C299.684 237.228 299.827 236.596 299.827 235.981V217.612C299.827 216.997 299.684 216.365 299.398 215.699C299.112 215.033 298.742 214.435 298.279 213.887ZM289.678 235.981H274.455V217.612H289.678V235.981Z" fill="white"/>
<path d="M307.031 212.539C306.425 212.893 305.887 213.348 305.432 213.887C304.978 214.435 304.599 215.033 304.313 215.699C304.027 216.365 303.884 216.997 303.884 217.612V223.991C303.884 224.606 304.027 225.238 304.313 225.903C304.599 226.569 304.969 227.167 305.432 227.715C305.887 228.263 306.425 228.709 307.031 229.063C307.637 229.417 308.285 229.602 308.958 229.602H329.256V235.981H303.875V241.593H334.331C334.979 241.593 335.61 241.416 336.233 241.054C336.855 240.7 337.402 240.245 337.857 239.697C338.311 239.158 338.682 238.551 338.976 237.885C339.262 237.22 339.405 236.588 339.405 235.973V229.594C339.405 228.979 339.262 228.347 338.976 227.681C338.69 227.016 338.32 226.417 337.857 225.87C337.402 225.322 336.855 224.875 336.233 224.521C335.602 224.167 334.97 223.982 334.331 223.982H314.033V217.612H339.414V212H308.958C308.285 212 307.637 212.177 307.031 212.539Z" fill="white"/>
<path d="M379 217.612V212H348.544C347.871 212 347.223 212.177 346.617 212.539C346.011 212.893 345.473 213.348 345.018 213.887C344.564 214.435 344.185 215.033 343.899 215.699C343.613 216.365 343.47 216.997 343.47 217.612V223.991C343.47 224.606 343.613 225.238 343.899 225.903C344.185 226.569 344.555 227.167 345.018 227.715C345.473 228.263 346.011 228.709 346.617 229.063C347.223 229.417 347.871 229.602 348.544 229.602H368.842V235.981H343.461V241.593H373.917C374.557 241.593 375.196 241.416 375.819 241.054C376.442 240.7 376.989 240.245 377.443 239.697C377.897 239.158 378.276 238.551 378.562 237.885C378.848 237.22 378.991 236.588 378.991 235.973V229.594C378.991 228.979 378.848 228.347 378.562 227.681C378.276 227.016 377.906 226.417 377.443 225.87C376.989 225.322 376.442 224.875 375.819 224.521C375.196 224.167 374.557 223.982 373.917 223.982H353.619V217.612H379Z" fill="white"/>
</g>
<defs>
<clipPath id="clip0_241_499">
<rect width="304" height="29.5929" fill="white" transform="translate(75 212)"/>
</clipPath>
</defs>
</svg>
