<svg width="454" height="454" viewBox="0 0 454 454" fill="none" xmlns="http://www.w3.org/2000/svg">
<rect width="454" height="454" fill="#E20024"/>
<g clip-path="url(#clip0_241_500)">
<path d="M190.106 244.869H181.649L172.498 230.911L163.28 244.869H155.021L168.021 225.955L156.029 208.281H164.437L172.564 220.603L180.823 208.281H189.082L176.892 225.559L190.106 244.869Z" fill="white"/>
<path d="M194.17 202.582V194.868H201.966V202.582H194.17ZM194.302 244.869V208.281H201.884V244.869H194.302Z" fill="white"/>
<path d="M251.604 207.471C253.355 207.408 255.098 207.727 256.712 208.406C258.327 209.085 259.774 210.108 260.954 211.403C263.421 214.222 264.706 217.885 264.538 221.628V244.869H257.022V223.395C257.055 221.705 256.769 220.024 256.18 218.44C255.703 217.156 254.852 216.045 253.735 215.252C252.603 214.512 251.271 214.137 249.919 214.178C248.726 214.162 247.547 214.426 246.474 214.948C245.401 215.47 244.465 216.236 243.741 217.184C242.06 219.389 241.201 222.111 241.313 224.882V244.869H233.93V223.395C234.086 220.961 233.442 218.542 232.096 216.507C231.475 215.71 230.669 215.075 229.748 214.658C228.828 214.241 227.819 214.053 226.81 214.112C225.626 214.104 224.455 214.372 223.392 214.893C222.328 215.415 221.401 216.177 220.682 217.118C218.969 219.309 218.091 222.037 218.204 224.816V244.803H210.688V208.281H216.04L217.329 213.022C218.686 211.289 220.42 209.888 222.4 208.925C224.363 207.961 226.522 207.463 228.71 207.471C230.984 207.42 233.229 207.991 235.201 209.123C237.092 210.244 238.64 211.861 239.678 213.798C240.972 211.828 242.745 210.22 244.832 209.123C246.917 208.02 249.245 207.452 251.604 207.471Z" fill="white"/>
<path d="M304.116 240.293C300.3 243.799 295.307 245.744 290.125 245.744C284.943 245.744 279.95 243.799 276.134 240.293C274.303 238.517 272.861 236.38 271.899 234.017C270.938 231.654 270.479 229.116 270.551 226.566C270.503 223.127 271.382 219.738 273.095 216.755C274.748 213.844 277.187 211.457 280.131 209.866C283.213 208.246 286.643 207.399 290.125 207.399C293.607 207.399 297.037 208.246 300.119 209.866C303.064 211.462 305.507 213.847 307.172 216.755C308.871 219.742 309.744 223.129 309.699 226.566C309.775 229.117 309.318 231.655 308.356 234.019C307.395 236.383 305.951 238.52 304.116 240.293ZM290.125 238.559C292.276 238.596 294.399 238.072 296.286 237.039C298.071 236.042 299.541 234.566 300.532 232.777C301.561 230.871 302.084 228.733 302.051 226.566C302.109 224.983 301.845 223.405 301.278 221.926C300.71 220.447 299.849 219.098 298.748 217.96C296.424 215.783 293.359 214.571 290.175 214.571C286.99 214.571 283.925 215.783 281.602 217.96C279.445 220.307 278.248 223.379 278.248 226.566C278.248 229.754 279.445 232.825 281.602 235.172C282.716 236.288 284.047 237.164 285.513 237.747C286.979 238.329 288.548 238.605 290.125 238.559Z" fill="white"/>
<path d="M322.815 237.882H340.423V244.869H311.087V243.911L328.761 215.185H312.441V208.281H340.357V209.437L322.815 237.882Z" fill="white"/>
<path d="M376.4 240.293C372.584 243.799 367.591 245.744 362.409 245.744C357.227 245.744 352.234 243.799 348.418 240.293C346.587 238.517 345.145 236.38 344.184 234.017C343.223 231.654 342.763 229.116 342.835 226.566C342.788 223.127 343.666 219.738 345.379 216.755C347.032 213.844 349.471 211.457 352.416 209.866C355.497 208.246 358.927 207.399 362.409 207.399C365.891 207.399 369.321 208.246 372.403 209.866C375.348 211.462 377.791 213.847 379.456 216.755C381.144 219.757 381.999 223.156 381.934 226.599C382.011 229.141 381.559 231.671 380.607 234.028C379.654 236.386 378.222 238.519 376.4 240.293ZM362.409 238.559C364.56 238.596 366.684 238.072 368.571 237.039C370.355 236.042 371.825 234.566 372.816 232.777C373.845 230.871 374.368 228.733 374.335 226.566C374.393 224.983 374.13 223.405 373.562 221.926C372.994 220.447 372.134 219.098 371.032 217.96C368.708 215.783 365.643 214.571 362.459 214.571C359.274 214.571 356.209 215.783 353.886 217.96C351.729 220.307 350.532 223.379 350.532 226.566C350.532 229.754 351.729 232.825 353.886 235.172C355 236.288 356.331 237.164 357.797 237.747C359.263 238.329 360.833 238.605 362.409 238.559Z" fill="white"/>
<path d="M113.312 237.221C109.932 233.664 106.523 230.129 103.088 226.616C106.523 223.103 109.932 219.557 113.312 215.978C121.159 207.95 134.902 193.712 145.589 182.611L144.978 182L138.569 188.178C120.399 204.696 100.577 215.995 83.8107 207.058C82.48 206.324 81.243 205.431 80.127 204.399L76.1296 200.765C74.9072 199.724 73.7014 198.667 72.4955 197.61L72 198.122C80.507 208.033 89.559 217.432 98.8423 226.616C92.4497 232.893 86.1562 239.286 80.1435 245.943L75.188 251.46C74.1474 252.682 73.0903 253.888 72.0496 255.094L72.5451 255.589C75.2431 253.277 77.9026 250.926 80.5235 248.536C81.4719 247.654 82.5261 246.894 83.662 246.273C100.527 237.122 120.448 248.486 138.619 265.021L145.028 271.199L145.639 270.604C134.902 259.504 121.142 245.249 113.312 237.221Z" fill="white"/>
</g>
<defs>
<clipPath id="clip0_241_500">
<rect width="310" height="89.1991" fill="white" transform="translate(72 182)"/>
</clipPath>
</defs>
</svg>
